<svg width="1060" height="665" viewBox="0 0 1060 665" fill="none" xmlns="http://www.w3.org/2000/svg">
<g clip-path="url(#clip0_20_224)">
<path d="M811.5 592.07C877.498 592.07 931 581.325 931 568.07C931 554.815 877.498 544.07 811.5 544.07C745.502 544.07 692 554.815 692 568.07C692 581.325 745.502 592.07 811.5 592.07Z" stroke="#DC4618" stroke-miterlimit="10"/>
<path d="M360.54 376.89C360.891 377.78 361.288 378.651 361.73 379.5V379.61C361.73 379.61 367.39 400.52 370.04 404.91C370.81 406.18 371.68 407.56 372.54 408.91C372.37 409.903 372.37 410.917 372.54 411.91C373.34 416.57 374.31 422.98 373.87 424.39C373.43 425.8 374.4 429.31 372.87 430.53C371.34 431.75 369.77 433.87 374.46 436.68C374.46 436.68 375.34 439.05 374.55 439.58C374.46 439.64 374.55 439.77 374.77 439.94C373.48 443.76 371.59 449.94 372.77 450.38C373.42 450.63 375.18 449.71 377.11 448.47C377.16 448.72 377.2 448.99 377.25 449.26C377.557 451.319 378.032 453.349 378.67 455.33C379.53 457.24 380.39 460.46 379.93 461.52C379.47 462.58 381.19 464.94 380.79 465.87C380.39 466.8 382.12 469.82 382.12 469.82C382.12 469.82 383.84 475.68 383.77 477.66C383.7 479.64 385.63 492.41 385.63 492.41C385.63 492.41 383.63 499 384.63 500.91C385.63 502.82 386.28 509.41 384.63 511.85C382.98 514.29 380.91 519.68 381.58 521.13C382.25 522.58 380.65 540.5 384.69 547.88C385.207 550.626 385.584 553.396 385.82 556.18C385.82 558.18 389 563.49 389 563.49C389 563.49 387.08 571.49 391.79 572.84C392.115 572.942 392.45 573.005 392.79 573.03C392.934 573.905 392.815 574.802 392.45 575.61C391.645 576.724 391.074 577.989 390.77 579.33C390.701 579.582 390.733 579.851 390.86 580.08C391.39 580.67 392.86 588.58 392.86 588.58C392.86 588.58 394.98 597.47 406.65 595.3C406.65 595.3 414.54 594.84 413.88 592.07C413.663 591.156 413.375 590.26 413.02 589.39C412.742 588.827 412.495 588.25 412.28 587.66C412.15 587 410.49 585.15 410.36 583.9C410.23 582.65 409.17 580.21 409.36 579.42C409.55 578.63 407.57 572.97 407.43 571.71C407.268 570.833 407.017 569.976 406.68 569.15L407.1 568.95C407.1 568.95 408.16 563.02 407.24 560.85C406.32 558.68 402.66 555.85 402.66 555.85C402.66 555.85 403.19 541.29 402.53 539.31C401.87 537.33 402.86 529.83 402.86 529.83C402.86 529.83 405.11 519.22 404.98 516.83C404.905 515.35 405.129 513.871 405.64 512.48C405.64 512.48 407.04 496.87 407.96 494.89C408.88 492.91 409.96 473.55 409.96 473.55L410.58 475.33C411.451 478.001 412.487 480.616 413.68 483.16C414.19 483.96 415.68 486.52 416.96 488.66L418.85 491.86C418.85 491.86 419.71 494.96 419.11 496.86C418.51 498.76 425.28 509.04 425.28 509.04C424.844 509.898 424.618 510.848 424.62 511.81C424.81 512.81 422.56 515.96 422.56 515.96C422.56 515.96 421.7 518.79 422.23 519.78C422.76 520.77 421.37 526.63 421.37 526.63C421.37 526.63 419.11 539.54 418.58 541.06C418.05 542.58 418.85 552.98 418.85 552.98C418.85 552.98 414.69 563.63 416.62 567.17C416.7 568.48 416.71 570.48 416.2 571.29C415.51 572.37 415.71 576.36 415.78 577.46C415.78 577.65 415.78 577.75 415.78 577.75C415.78 577.75 413.52 580.75 416.37 581.97C419.22 583.19 428.91 584.07 428.91 584.07C428.91 584.07 438.12 586.71 442.56 587.43C447 588.15 456.29 587.89 456.95 585.19C457.185 584.352 457.266 583.477 457.19 582.61C457.13 582.062 456.931 581.539 456.61 581.09C456.29 580.642 455.859 580.284 455.36 580.05C452.63 578.964 449.838 578.039 447 577.28C447 577.28 442.62 576.28 442.22 574.38C441.82 572.48 435.59 567.2 435.59 567.2C435.59 567.2 435.52 566.83 435.39 566.33H435.59L435.29 566.03C434.98 565.03 434.48 563.71 433.87 563.96C433.775 563.781 433.717 563.585 433.699 563.383C433.682 563.181 433.706 562.977 433.769 562.785C433.833 562.592 433.935 562.414 434.069 562.262C434.203 562.11 434.367 561.987 434.55 561.9C436.94 560.59 438.4 556.44 437.73 551.96C437.06 547.48 436.94 548.27 438.33 545.7C439.192 543.758 439.537 541.625 439.33 539.51L443 525.83C443.575 524.149 443.931 522.402 444.06 520.63C444.122 519.236 444.484 517.872 445.12 516.63C445.12 516.63 446.78 507.14 448.24 504.97C449.7 502.8 447.24 495.15 447.24 495.15C447.24 495.15 444.99 483.3 445.12 477.89C445.25 472.48 439.28 453.72 439.28 453.72C438.514 452.502 438.189 451.058 438.36 449.63C438.48 448.51 437.78 446.69 436.99 445.06L436.74 444.55C437.045 444.158 437.413 443.82 437.83 443.55C439.47 442.55 440.24 439.92 440.25 438.07L417.64 384.78C417.64 384.62 428.11 363.23 428.08 363.07C427.46 359.56 421.54 350.25 421.54 350.25C421.483 350.133 421.397 350.033 421.29 349.96C419.96 349.35 415.46 346.8 415.46 346.8C411.93 342.44 408.62 341.54 406.46 341.57C405.781 341.562 405.105 341.666 404.46 341.88C404.23 341.952 404.005 342.042 403.79 342.15L403.69 343.02C403.506 341.008 403.665 338.979 404.16 337.02C404.21 336.85 404.26 336.67 404.3 336.5C404.63 336.5 404.96 336.5 405.3 336.5C407.417 336.507 409.514 336.096 411.473 335.292C413.431 334.488 415.212 333.306 416.713 331.814C418.215 330.322 419.408 328.548 420.224 326.595C421.04 324.642 421.463 322.547 421.47 320.43C421.469 318.925 421.261 317.428 420.85 315.98L420.77 315.75L421.27 315.53C423.27 314.79 425.78 316.05 427.4 314.71C427.987 314.128 428.408 313.399 428.62 312.6C429.069 311.529 429.368 310.402 429.51 309.25C429.51 309.05 429.51 308.85 429.51 308.65C429.515 308.59 429.515 308.53 429.51 308.47C429.515 308.397 429.515 308.323 429.51 308.25C429.51 308.16 429.51 308.07 429.51 307.98C429.51 307.89 429.51 307.98 429.51 307.98C429.419 307.245 429.121 306.551 428.65 305.98C427.59 304.74 425.82 304.44 424.48 303.53C423.384 302.681 422.475 301.616 421.81 300.4C421.143 299.191 420.266 298.111 419.22 297.21C418.689 296.764 418.045 296.471 417.36 296.364C416.674 296.256 415.972 296.338 415.33 296.6C414.938 296.868 414.506 297.07 414.05 297.2C413.554 297.207 413.065 297.075 412.64 296.82C408.04 294.67 402.64 295.05 397.64 295.69C395.608 295.852 393.614 296.331 391.73 297.11C390.788 297.497 389.943 298.086 389.252 298.833C388.561 299.581 388.042 300.471 387.73 301.44C387.32 302.99 387.63 304.67 387.14 306.2C386.8 307.2 386.14 308.12 385.72 309.13C385.516 309.659 385.388 310.215 385.34 310.78C385.34 310.78 385.34 310.89 385.34 310.94C385.17 313.21 386.06 315.6 386.49 317.94C387.08 321.13 386.78 324.6 388.15 327.62C388.287 327.99 388.461 328.345 388.67 328.68C388.19 329.68 387.67 330.74 387.17 331.73C386.43 331.52 384.17 331.02 384.09 333C384.074 334.609 383.698 336.195 382.99 337.64C382.885 337.723 382.774 337.8 382.66 337.87C382.538 337.926 382.436 338.019 382.37 338.135C382.304 338.252 382.276 338.387 382.29 338.52L382.03 338.72C381.915 338.727 381.805 338.765 381.71 338.83C381.57 338.59 381.11 338.57 379.65 340.31C377.707 342.331 375.472 344.05 373.02 345.41C373.02 345.41 363.2 352.26 362.67 355.41C362.14 358.56 358.86 372.32 360.54 376.89ZM403.66 343.47C403.66 343.47 403.66 343.4 403.66 343.36L403.78 343.42L403.66 343.47ZM430.34 567.47C430.074 567.583 429.789 567.641 429.5 567.64L430.34 567.47Z" fill="url(#paint0_linear_20_224)"/>
<path d="M407.73 595.33C396.2 597.49 394.1 588.65 394.1 588.65C394.1 588.65 392.66 580.79 392.1 580.2C391.973 579.971 391.941 579.702 392.01 579.45C392.311 578.118 392.876 576.86 393.67 575.75C394.39 574.9 393.8 571.36 393.8 571.36L407.16 567.96C407.731 569.221 408.17 570.538 408.47 571.89C408.61 573.13 410.57 578.77 410.37 579.55C410.17 580.33 411.23 582.76 411.37 584.01C411.51 585.26 413.14 587.09 413.27 587.74C413.471 588.332 413.712 588.91 413.99 589.47C414.347 590.332 414.631 591.221 414.84 592.13C415.52 594.87 407.73 595.33 407.73 595.33Z" fill="#444053"/>
<path opacity="0.1" d="M407.73 595.33C396.2 597.49 394.1 588.65 394.1 588.65C394.1 588.65 392.66 580.79 392.1 580.2C391.973 579.971 391.941 579.702 392.01 579.45L394.78 587.45C394.78 587.45 397.08 592.24 405.59 591.51C410.44 591.11 412.82 590.21 413.98 589.51C414.337 590.372 414.621 591.261 414.83 592.17C415.52 594.87 407.73 595.33 407.73 595.33Z" fill="#E5AB17"/>
<path opacity="0.1" d="M398.75 582.88C398.75 582.88 401.64 582.95 401.83 580.59L398.75 582.88Z" fill="#E5AB17"/>
<path d="M448.87 505.45C447.43 507.61 445.79 517.04 445.79 517.04C445.18 518.289 444.84 519.651 444.79 521.04C444.684 522.803 444.348 524.544 443.79 526.22L440 539.78C440.202 541.882 439.857 544 439 545.93C437.63 548.49 437.76 547.7 438.41 552.16C439.06 556.62 437.63 560.74 435.27 562.05C432.91 563.36 436.32 566.44 436.32 566.44C436.32 566.44 421.25 570.5 418.1 568.01C414.95 565.52 419.74 553.21 419.74 553.21C419.74 553.21 418.96 542.86 419.48 541.35C420 539.84 422.23 527 422.23 527C422.23 527 423.61 521.17 423.08 520.19C422.55 519.21 423.41 516.39 423.41 516.39C423.41 516.39 425.64 513.24 425.41 512.26C425.414 511.305 425.64 510.363 426.07 509.51C426.07 509.51 419.39 499.29 419.97 497.39C420.55 495.49 419.71 492.39 419.71 492.39C419.71 492.39 418.87 490.94 417.85 489.21C416.61 487.08 415.11 484.54 414.6 483.74C413.429 481.21 412.411 478.612 411.55 475.96L410.93 474.18C410.93 474.18 409.93 493.44 408.93 495.4C407.93 497.36 406.64 512.9 406.64 512.9C406.13 514.281 405.906 515.75 405.98 517.22C406.11 519.64 403.88 530.22 403.88 530.22C403.88 530.22 402.88 537.69 403.56 539.66C404.24 541.63 403.69 556.1 403.69 556.1C403.69 556.1 407.29 558.92 408.21 561.1C409.13 563.28 408.08 569.16 408.08 569.16C408.08 569.16 397.6 574.4 392.94 573.02C388.28 571.64 390.19 563.72 390.19 563.72C390.19 563.72 387.05 558.48 387.05 556.45C386.817 553.68 386.443 550.923 385.93 548.19C381.93 540.85 383.51 523.04 382.86 521.59C382.21 520.14 384.23 514.78 385.86 512.36C387.49 509.94 386.86 503.36 385.86 501.48C384.86 499.6 386.86 493.03 386.86 493.03C386.86 493.03 384.96 480.32 385.03 478.36C385.1 476.4 383.39 470.56 383.39 470.56C383.39 470.56 381.69 467.56 382.08 466.63C382.47 465.7 380.77 463.35 381.23 462.31C381.69 461.27 380.83 458.05 379.98 456.15C379.358 454.19 378.89 452.183 378.58 450.15C378.18 447.89 377.89 445.9 377.89 445.9L388.7 437.19L415.7 430.11L425.94 426.78L435.83 442.37C435.83 442.37 436.83 444 437.76 445.88C438.54 447.5 439.23 449.31 439.11 450.43C438.945 451.849 439.27 453.281 440.03 454.49C440.03 454.49 445.92 473.16 445.79 478.49C445.66 483.82 447.89 495.66 447.89 495.66C447.89 495.66 450.31 503.29 448.87 505.45Z" fill="#2A3E4C"/>
<path opacity="0.1" d="M388.21 515.21C388.21 515.21 399.74 510.3 403.14 513.77C406.54 517.24 388.21 515.21 388.21 515.21Z" fill="#E5AB17"/>
<path opacity="0.1" d="M394.69 517.17C394.69 517.17 383 523.78 387 524.84C391 525.9 394.69 517.17 394.69 517.17Z" fill="#E5AB17"/>
<path opacity="0.1" d="M429.54 511.48C429.54 511.48 424.54 511.8 426.46 512.79C428.38 513.78 429.54 511.48 429.54 511.48Z" fill="#E5AB17"/>
<path opacity="0.1" d="M435.77 512.98C435.7 513.31 421.29 517.98 424.11 520.06C426.93 522.14 435.77 512.98 435.77 512.98Z" fill="#E5AB17"/>
<path opacity="0.1" d="M389.91 553.07C392.07 552.75 404.13 547.18 399.41 551.18C398.147 552.328 396.596 553.11 394.922 553.443C393.248 553.776 391.516 553.647 389.91 553.07Z" fill="#E5AB17"/>
<path opacity="0.1" d="M395.87 557.46C395.87 557.46 396.92 561.53 400.92 561C404.92 560.47 395.87 557.46 395.87 557.46Z" fill="#E5AB17"/>
<path opacity="0.1" d="M392.53 565.72C393.25 565.52 401.83 561.59 402.03 563.43C402.23 565.27 393.84 568.43 393.19 567.49C392.813 566.971 392.585 566.359 392.53 565.72Z" fill="#E5AB17"/>
<path opacity="0.1" d="M420.31 561C421.31 560.94 431.18 557.79 433.15 560.61L420.31 561Z" fill="#E5AB17"/>
<path opacity="0.1" d="M429.22 562.84C429.22 562.84 430.92 561.33 432.62 562.12C434.32 562.91 429.22 562.84 429.22 562.84Z" fill="#E5AB17"/>
<path opacity="0.1" d="M407.47 579.08C407.576 579.638 407.843 580.152 408.237 580.561C408.632 580.969 409.136 581.254 409.69 581.38L407.47 579.08Z" fill="#E5AB17"/>
<path d="M457.45 585.24C456.8 587.93 447.62 588.19 443.24 587.47C438.86 586.75 429.74 584.13 429.74 584.13C429.74 584.13 420.18 583.21 417.36 582.03C414.54 580.85 416.77 577.84 416.77 577.84C416.77 577.84 416.77 577.74 416.77 577.56C416.7 576.46 416.51 572.49 417.18 571.42C417.97 570.17 417.51 566.11 417.51 566.11C417.51 566.11 431.07 568.73 431.33 567.49C431.59 566.25 433.69 564.49 434.67 564.08C435.65 563.67 436.38 567.36 436.38 567.36C436.38 567.36 442.54 572.6 442.93 574.5C443.32 576.4 447.64 577.38 447.64 577.38C450.446 578.132 453.204 579.05 455.9 580.13C456.395 580.362 456.821 580.718 457.138 581.163C457.455 581.608 457.652 582.127 457.71 582.67C457.78 583.535 457.692 584.406 457.45 585.24Z" fill="#444053"/>
<path opacity="0.1" d="M457.45 585.24C456.8 587.93 447.62 588.19 443.24 587.47C438.86 586.75 429.74 584.13 429.74 584.13C429.74 584.13 420.18 583.21 417.36 582.03C414.54 580.85 416.77 577.84 416.77 577.84C416.77 577.84 416.77 577.74 416.77 577.56L430.48 580.56C430.48 580.56 437.23 583.44 441.55 583.44C445.33 583.44 453.78 584.99 457.71 582.64C457.784 583.515 457.696 584.397 457.45 585.24Z" fill="#E5AB17"/>
<path opacity="0.1" d="M438.91 574.89C438.91 574.89 438.26 579.21 435.64 580.66L438.91 574.89Z" fill="#E5AB17"/>
<path d="M480.9 415.65C477 417.13 468 417.29 464 417.29C462.78 417.29 462 417.29 462 417.29L459.43 412.05L462 407.68C462 407.68 464.36 407.03 467.5 406.46C472.13 405.63 478.5 404.98 481.5 406.85C486.54 409.98 486 413.78 480.9 415.65Z" fill="#A1616A"/>
<path d="M421.33 352.94L422.47 351.63C422.47 351.63 428.32 360.89 428.93 364.38C429.54 367.87 430.33 371.89 430.33 371.89C430.33 371.89 431.81 376.43 432.78 378.44C433.606 379.963 434.25 381.577 434.7 383.25C434.78 384.12 434.35 386.04 436.18 387.25C438.01 388.46 438.45 391.79 438.45 391.79C438.45 391.79 445.09 398.25 448.59 398.43C452.09 398.61 462.12 400.35 461.78 402.09C461.44 403.83 465.97 404.89 467.78 405.33C469.59 405.77 456 411.02 464 417.78C464 417.78 458.93 418.78 458.41 420.05C457.89 421.32 452.56 419.35 452.56 419.35C452.56 419.35 451.42 416.64 447.49 416.47C443.56 416.3 441.55 414.55 441.55 414.29C441.55 414.03 437.62 411.84 435.44 411.23C433.26 410.62 430.37 410.36 430.28 409.74C430.19 409.12 417.18 352.97 417.18 352.97L421.33 352.94Z" fill="#DC4618"/>
<path opacity="0.05" d="M421.33 353.16L422.47 351.85C422.47 351.85 428.32 361.11 428.93 364.61C429.54 368.11 430.33 372.12 430.33 372.12C430.33 372.12 431.81 376.66 432.78 378.67C433.604 380.19 434.248 381.801 434.7 383.47C434.78 384.35 434.35 386.27 436.18 387.47C438.01 388.67 438.45 392.01 438.45 392.01C438.45 392.01 445.09 398.48 448.59 398.65C452.09 398.82 462.12 400.57 461.78 402.32C461.44 404.07 465.97 405.12 467.78 405.55C469.59 405.98 456 411.25 464 417.98C464 417.98 458.93 418.98 458.41 420.25C457.89 421.52 452.56 419.55 452.56 419.55C452.56 419.55 451.42 416.84 447.49 416.67C443.56 416.5 441.55 414.75 441.55 414.48C441.55 414.21 437.62 412.04 435.44 411.43C433.26 410.82 430.37 410.55 430.28 409.94C430.19 409.33 417.18 353.16 417.18 353.16H421.33Z" fill="#E5AB17"/>
<path d="M555 590.56C621 590.56 674.5 601.31 674.5 614.56C674.5 627.81 621 638.56 555 638.56C489 638.56 435.5 627.82 435.5 614.56" stroke="#2A3E4C" stroke-miterlimit="10"/>
<path d="M530.443 95.9574L513.594 93.0985L492.337 218.378L509.186 221.237L530.443 95.9574Z" fill="#444053"/>
<path d="M550.34 598.75L554.08 625.45L557.28 597.69L550.34 598.75Z" fill="#EAE8E3"/>
<path d="M430.2 583.8V600.36L433.94 614.77H436.61L439.82 599.29L441.42 580.6L430.2 583.8Z" fill="#2A3E4C"/>
<path d="M422.59 519.2L430.59 520.8C430.59 520.8 421.52 545.89 427.92 551.23H417.79C417.79 551.23 414.05 532.01 422.59 519.2Z" fill="#EAE8E3"/>
<path opacity="0.1" d="M422.59 519.2L430.59 520.8C430.59 520.8 421.52 545.89 427.92 551.23H417.79C417.79 551.23 414.05 532.01 422.59 519.2Z" fill="#E5AB17"/>
<path d="M476.12 217.53L450.49 379.84C450.49 379.84 412.59 552.84 427 587.01H445.16L499.62 254.91L476.12 217.53Z" fill="#EAE8E3"/>
<path d="M541.12 197.37L560.77 360.51C560.77 360.51 575.08 568.34 559.41 601.95H543.93L516.27 233.86L541.12 197.37Z" fill="#EAE8E3"/>
<path d="M473.73 158.23C475.049 153.799 477.794 149.926 481.539 147.214C485.283 144.502 489.818 143.102 494.44 143.23C510.25 143.63 534.69 146.51 547.44 159.57C567.2 179.86 534.09 248.2 534.09 248.2C534.09 248.2 503.09 305.33 474.83 232.72C474.79 232.78 463.07 193.9 473.73 158.23Z" fill="#444053"/>
<path opacity="0.1" d="M473.73 158.23C475.049 153.799 477.794 149.926 481.539 147.214C485.283 144.502 489.818 143.102 494.44 143.23C510.25 143.63 534.69 146.51 547.44 159.57C567.2 179.86 534.09 248.2 534.09 248.2C534.09 248.2 503.09 305.33 474.83 232.72C474.79 232.78 463.07 193.9 473.73 158.23Z" fill="#E5AB17"/>
<path d="M484.6 172.11C485.55 168.962 487.509 166.214 490.174 164.288C492.839 162.361 496.063 161.365 499.35 161.45C510.6 161.74 528 163.79 537.05 173.09C551.12 187.53 527.55 236.19 527.55 236.19C527.55 236.19 505.55 276.86 485.35 225.19C485.35 225.16 477 197.51 484.6 172.11Z" fill="#444053"/>
<path d="M539.33 587.9C539.5 590.48 539.9 593.19 541.53 595.21C544.23 598.55 549.14 598.81 553.34 599.86C556.565 600.783 559.693 602.015 562.68 603.54L571.77 607.84C569.439 607.975 567.141 608.453 564.95 609.26C563.78 609.69 562.5 610.4 562.33 611.62C562.308 612.129 562.44 612.632 562.71 613.064C562.979 613.496 563.373 613.836 563.84 614.04C564.79 614.431 565.813 614.612 566.84 614.57C572.254 614.722 577.671 614.438 583.04 613.72L583.68 613.63C586.44 614.997 589.187 616.393 591.92 617.82C593.06 618.42 594.43 617.82 595.39 616.98C596.562 615.942 597.597 614.76 598.47 613.46C598.63 613.74 598.79 614.01 598.92 614.28C599.8 615.97 600.63 618.18 599.37 619.62C598.37 620.74 596.48 620.93 595.91 622.29C595.755 622.782 595.761 623.31 595.928 623.798C596.096 624.286 596.415 624.707 596.84 625C597.71 625.574 598.711 625.918 599.75 626C602.223 626.34 604.733 626.32 607.2 625.94C608.537 625.846 609.804 625.308 610.8 624.41C611.651 623.252 612.1 621.847 612.08 620.41L613.79 600.98C613.946 600.057 613.877 599.111 613.59 598.22C612.91 596.57 610.94 595.88 609.16 595.59H608.97C610.45 595.59 611.97 595.52 613.57 595.52C614.964 595.61 616.362 595.433 617.69 595C620.23 594 621.6 591.33 622.69 588.87C624.69 584.55 626.99 579.87 626.69 575.07L625.91 574.72C625.84 569.61 623.7 564.84 622.91 559.85C623.778 558.51 624.24 556.947 624.24 555.35C624.136 553.594 623.755 551.866 623.11 550.23C619.94 540.81 616.77 531.36 612.53 522.36C609.787 516.366 606.436 510.67 602.53 505.36C601.51 504.027 600.45 502.693 599.35 501.36C598.55 500.44 596.76 499.14 596.43 497.97C596.1 496.8 596.8 495.66 596.43 494.46C596.335 494.147 596.215 493.843 596.07 493.55C598.41 490.45 597.75 485.97 596.93 482.11L595.93 477.3C595.716 475.974 595.298 474.688 594.69 473.49C594.046 472.463 593.239 471.547 592.3 470.78C587.38 466.34 581.3 463.39 575.77 459.71C569.92 455.82 564.69 451.09 559.45 446.42C557.85 445 555.84 443.47 553.77 444.07C551.7 444.67 550.84 446.91 550.77 448.95C550.751 450.365 551.031 451.767 551.591 453.067C552.151 454.366 552.978 455.532 554.02 456.49C557.64 459.8 563.11 460.07 567.42 462.41C568.901 463.27 570.309 464.25 571.63 465.34L584.15 475.17C585.099 475.738 585.796 476.646 586.1 477.71C586.149 478.352 586.046 478.996 585.8 479.59C585.33 481.03 584.53 482.84 583.94 484.67L582.94 483.95C580.867 482.401 578.646 481.061 576.31 479.95C573.211 478.684 569.936 477.898 566.6 477.62C559.21 476.79 552.6 477.93 548.08 484.1C547.143 485.51 545.953 486.734 544.57 487.71C543.545 488.187 542.587 488.795 541.72 489.52C539.4 492.09 540.72 496.35 542.9 498.52C544.745 500.234 547.018 501.419 549.48 501.95C550.837 504.978 553.26 507.401 556.288 508.758C559.316 510.116 562.737 510.312 565.9 509.31C566.055 510.597 566.085 511.897 565.99 513.19C565.942 513.856 566.044 514.524 566.288 515.145C566.532 515.766 566.912 516.325 567.4 516.78C567.926 517.138 568.507 517.408 569.12 517.58C571.332 518.381 573.427 519.474 575.35 520.83C573.092 523.276 571.23 526.06 569.83 529.08C568.97 531.085 568.611 533.269 568.785 535.444C568.96 537.618 569.661 539.718 570.83 541.56L570.89 541.64C570.722 542.263 570.41 542.839 569.98 543.32C569.37 543.796 568.6 544.018 567.831 543.94C567.061 543.861 566.351 543.489 565.85 542.9C564.992 541.886 564.266 540.767 563.69 539.57C562.701 537.954 561.392 536.556 559.845 535.463C558.298 534.369 556.544 533.603 554.69 533.21C553.32 532.86 551.877 532.919 550.54 533.38C549.882 533.616 549.306 534.035 548.879 534.588C548.452 535.141 548.192 535.804 548.13 536.5C548.13 538.01 549.23 539.26 550.31 540.33C553.623 543.767 557.313 546.819 561.31 549.43C562.399 550.104 563.524 550.718 564.68 551.27C562.68 550.85 560.707 550.44 558.76 550.04C556.032 549.36 553.214 549.113 550.41 549.31C549.011 549.419 547.655 549.843 546.443 550.55C545.231 551.256 544.194 552.227 543.41 553.39C542.308 555.483 542.075 557.926 542.76 560.19C543.453 562.435 544.489 564.56 545.83 566.49C547.934 570.027 550.515 573.257 553.5 576.09C551 576.84 548.5 577.66 546.06 578.56C543.62 579.46 541.06 580.56 539.94 582.8C539.283 584.415 539.072 586.176 539.33 587.9ZM576.14 553.9H576.23C576.761 553.659 577.215 553.275 577.54 552.79C579.06 550.756 580.137 548.426 580.7 545.95C581.281 545.872 581.851 545.728 582.4 545.52C582.026 545.876 581.729 546.304 581.526 546.779C581.323 547.253 581.219 547.764 581.22 548.28L586.86 551.04C587.267 551.193 587.616 551.469 587.86 551.83C588.015 552.203 588.053 552.615 587.97 553.01C587.81 554.3 587.56 555.59 587.4 556.87C585.71 556.37 584.05 555.97 582.56 555.57C580.44 554.99 578.29 554.45 576.14 553.91V553.9Z" fill="url(#paint1_linear_20_224)"/>
<path d="M577.19 500.78C578.609 501.135 580.085 501.198 581.528 500.966C582.972 500.734 584.354 500.212 585.59 499.43C586.085 499.083 586.636 498.826 587.22 498.67C587.738 498.624 588.259 498.701 588.742 498.894C589.225 499.087 589.656 499.39 590 499.78C592.4 502.17 592.68 506.11 591.44 509.26C590.2 512.41 587.71 514.89 585.1 517.04C582.992 518.776 580.763 520.36 578.43 521.78C577.787 520.274 576.852 518.91 575.677 517.769C574.503 516.627 573.114 515.73 571.59 515.13C568.85 514.07 566.85 511.23 565.28 508.75C564.11 506.91 563.07 506.99 564.12 505.09C565.305 503.266 566.702 501.587 568.28 500.09C569.14 499.18 569.891 498.173 570.52 497.09C571.22 495.83 571.06 495.01 572.14 496.01C572.85 496.67 573.14 498.1 573.96 498.87C574.87 499.754 575.977 500.408 577.19 500.78Z" fill="#FABDBD"/>
<path d="M585.78 481.28C586.014 480.693 586.113 480.061 586.07 479.43C585.771 478.383 585.089 477.488 584.16 476.92L571.93 467.22C570.646 466.144 569.275 465.177 567.83 464.33C563.61 462.02 558.28 461.75 554.74 458.49C553.722 457.537 552.914 456.382 552.366 455.1C551.819 453.817 551.544 452.435 551.56 451.04C551.56 449.04 552.56 446.78 554.45 446.22C556.34 445.66 558.45 447.14 560.01 448.55C565.12 453.15 570.22 457.82 575.93 461.66C581.33 465.3 587.28 468.2 592.09 472.59C592.967 473.337 593.719 474.218 594.32 475.2C594.908 476.39 595.316 477.66 595.53 478.97L596.53 483.71C597.37 487.71 598.05 492.36 595.36 495.43C594.969 495.922 594.473 496.321 593.91 496.599C593.346 496.878 592.728 497.028 592.1 497.04C591.213 496.931 590.358 496.638 589.59 496.18C587.59 495.18 583.97 494.18 583.36 491.68C582.58 488.55 584.83 484.18 585.78 481.28Z" fill="#FABDBD"/>
<path d="M566.27 543.78C565.436 542.777 564.727 541.675 564.16 540.5C563.202 538.91 561.929 537.532 560.419 536.452C558.909 535.372 557.194 534.613 555.38 534.22C554.059 533.886 552.67 533.942 551.38 534.38C550.735 534.618 550.171 535.035 549.754 535.582C549.338 536.13 549.087 536.785 549.03 537.47C549.03 538.95 550.1 540.19 551.15 541.24C554.385 544.637 557.994 547.657 561.91 550.24C565.831 552.812 570.329 554.371 575 554.78C575.471 554.838 575.948 554.793 576.4 554.65C576.918 554.41 577.361 554.033 577.68 553.56C580.16 550.38 581.02 546.25 581.68 542.28C581.44 543.71 573.39 540.37 572.48 540.8C571.14 541.43 571.27 543.31 570.3 544.21C569.706 544.681 568.951 544.9 568.197 544.82C567.443 544.739 566.751 544.366 566.27 543.78Z" fill="#FABDBD"/>
<path d="M624.92 575.2C624.966 575.7 624.869 576.203 624.64 576.65C624.09 577.51 622.85 577.52 621.84 577.37C619.508 576.977 617.206 576.422 614.95 575.71L594.42 569.78C594.094 569.717 593.79 569.569 593.54 569.35C593.323 569.094 593.181 568.782 593.13 568.45C592.417 565.505 592.264 562.452 592.68 559.45C592.705 559.017 592.847 558.599 593.09 558.24C593.552 557.814 594.162 557.585 594.79 557.6C598.006 557.274 601.238 557.127 604.47 557.16C606.568 557.249 608.669 557.202 610.76 557.02C613.46 556.7 616.57 555.15 619.28 555.39C621.63 555.59 621.53 557.39 621.77 559.39C622.44 564.7 624.87 569.78 624.92 575.2Z" fill="#FABDBD"/>
<path d="M559.37 550.83C556.707 550.15 553.952 549.904 551.21 550.1C549.844 550.208 548.519 550.624 547.336 551.317C546.153 552.009 545.143 552.961 544.38 554.1C543.292 556.169 543.062 558.583 543.74 560.82C544.426 563.028 545.437 565.121 546.74 567.03C549.047 571.02 552.012 574.59 555.51 577.59C557.26 578.98 559.19 580.13 560.87 581.59C564.45 584.72 566.67 589.09 568.8 593.34C570.8 597.34 572.8 601.42 573.66 605.82C573.668 605.99 573.709 606.156 573.783 606.309C573.857 606.462 573.962 606.599 574.09 606.71C574.368 606.845 574.687 606.866 574.98 606.77L584.83 604.95C585.109 604.962 585.385 604.898 585.63 604.764C585.876 604.631 586.08 604.434 586.222 604.194C586.363 603.953 586.437 603.679 586.435 603.4C586.433 603.121 586.355 602.848 586.21 602.61C584.073 593.425 580.074 584.777 574.46 577.2C577.069 579.665 580.228 581.472 583.675 582.47C587.122 583.468 590.758 583.629 594.28 582.94C595.657 582.744 596.956 582.181 598.04 581.31C600.24 579.31 600.14 575.9 599.65 572.99C599.209 570.397 598.601 567.835 597.83 565.32C595.98 559.32 588 557.7 582.59 556.24C574.91 554.207 567.17 552.403 559.37 550.83Z" fill="#2A3E4C"/>
<path opacity="0.1" d="M566.66 572.09C568.066 572.647 569.34 573.491 570.4 574.57C568.63 572.57 563.57 571.57 561.09 570.64C558.02 569.5 554.67 568.33 552.09 566.3C557.081 567.874 561.95 569.809 566.66 572.09Z" fill="#E5AB17"/>
<path d="M598.56 614.24C599.41 615.92 600.22 618.09 599 619.52C598.06 620.62 596.18 620.81 595.62 622.15C595.467 622.635 595.472 623.157 595.636 623.639C595.799 624.121 596.113 624.538 596.53 624.83C597.374 625.404 598.353 625.749 599.37 625.83C601.787 626.16 604.239 626.14 606.65 625.77C607.956 625.674 609.192 625.143 610.16 624.26C611.002 623.099 611.44 621.694 611.41 620.26L613.08 601.08C613.228 600.168 613.163 599.233 612.89 598.35C612.22 596.72 610.3 596.05 608.56 595.76C606.615 595.43 604.636 595.35 602.67 595.52C601.344 595.538 600.058 595.979 599 596.78C598.018 597.899 597.413 599.298 597.27 600.78C596.82 603.06 595.56 606.22 595.83 608.53C596 610.44 597.72 612.56 598.56 614.24Z" fill="#DC4618"/>
<path d="M576.48 608.04C572.73 607.551 568.917 607.98 565.37 609.29C564.23 609.71 562.98 610.42 562.81 611.62C562.787 612.121 562.916 612.617 563.18 613.044C563.445 613.47 563.831 613.807 564.29 614.01C565.22 614.396 566.223 614.577 567.23 614.54C572.517 614.68 577.807 614.399 583.05 613.7C584.412 613.611 585.732 613.196 586.9 612.49C587.477 612.123 587.912 611.571 588.132 610.923C588.352 610.276 588.344 609.572 588.11 608.93C587.48 607.61 585.76 607.2 584.93 606.01C584.33 605.15 584.18 603.88 583.24 603.43C582.529 603.204 581.759 603.261 581.09 603.59C580.09 603.94 577.69 604.29 577 605.12C576.701 606.067 576.526 607.048 576.48 608.04Z" fill="#DC4618"/>
<path d="M562.32 511.27C569.571 511.27 575.45 505.392 575.45 498.14C575.45 490.889 569.571 485.01 562.32 485.01C555.068 485.01 549.19 490.889 549.19 498.14C549.19 505.392 555.068 511.27 562.32 511.27Z" fill="#FABDBD"/>
<path d="M593.46 492.36C591.35 490.81 588.69 490.28 586.12 489.8C585.252 489.53 584.317 489.576 583.48 489.93C582.927 490.33 582.49 490.868 582.21 491.49C581.418 492.775 580.831 494.175 580.47 495.64C580.294 496.374 580.292 497.139 580.466 497.874C580.64 498.609 580.984 499.293 581.47 499.87C582.25 500.67 583.37 501.07 584.17 501.87C584.689 502.449 585.066 503.141 585.271 503.891C585.475 504.64 585.503 505.428 585.35 506.19C585.027 507.707 584.434 509.153 583.6 510.46C581.672 513.859 579.471 517.096 577.02 520.14C574.47 523.31 571.61 526.36 570.11 530.14C569.274 532.123 568.928 534.278 569.102 536.422C569.276 538.567 569.965 540.638 571.11 542.46C573.54 546 578.38 547.9 582.39 546.37C582.024 546.722 581.735 547.144 581.539 547.612C581.343 548.08 581.244 548.583 581.25 549.09L586.75 551.82C587.156 551.97 587.506 552.242 587.75 552.6C587.897 552.968 587.932 553.372 587.85 553.76C587.419 555.978 587.194 558.231 587.18 560.49C587.33 562.74 588.36 565.11 590.4 566.09C592.27 566.99 594.49 566.51 596.53 566.09C601.294 565.125 606.139 564.616 611 564.57C613.42 564.57 615.92 564.63 618.15 563.69C619.645 563.031 620.918 561.955 621.817 560.591C622.716 559.228 623.203 557.633 623.22 556C623.12 554.265 622.746 552.557 622.11 550.94C619.02 541.64 615.92 532.32 611.78 523.43C609.083 517.514 605.797 511.886 601.97 506.63C600.97 505.3 599.97 503.99 598.86 502.72C598.08 501.81 596.33 500.53 596.01 499.37C595.69 498.21 596.37 497.09 596.01 495.91C595.561 494.485 594.667 493.241 593.46 492.36Z" fill="#DC4618"/>
<path d="M625.68 575.47C619.92 572.81 614.16 570.15 608.17 568.08C603.76 566.56 598.84 565.37 594.51 567.08C593.21 567.6 592.03 568.35 590.78 568.96C586.59 570.96 581.78 571.3 577.15 571.81C566.847 572.97 556.722 575.378 547 578.98C544.67 579.84 542.16 580.98 541 583.16C540.344 584.74 540.123 586.466 540.36 588.16C540.53 590.71 540.92 593.39 542.51 595.38C545.15 598.68 549.94 598.93 554.04 599.97C557.194 600.884 560.252 602.103 563.17 603.61C572.75 608.18 582.34 612.75 591.74 617.7C592.84 618.29 594.18 617.7 595.12 616.87C597.952 614.241 599.995 610.875 601.02 607.15C602.039 603.443 602.544 599.614 602.52 595.77C606.2 595.77 609.19 595.61 612.87 595.61C614.224 595.695 615.581 595.522 616.87 595.1C619.34 594.1 620.68 591.47 621.79 589.05C623.77 584.78 626 580.15 625.68 575.47Z" fill="#2A3E4C"/>
<path opacity="0.1" d="M558.8 589.14C561.39 587.88 564.39 587.85 567.28 587.87C569.042 587.838 570.803 587.972 572.54 588.27C575.193 588.977 577.769 589.945 580.23 591.16C586.364 593.734 592.959 595.027 599.61 594.96" fill="#E5AB17"/>
<path d="M543.86 500C545.839 501.825 548.293 503.056 550.94 503.55C553.54 504.15 556.22 504.38 558.84 504.96C562.06 505.67 565.58 507.37 566.31 510.59C566.479 511.88 566.512 513.183 566.41 514.48C566.362 515.128 566.459 515.779 566.692 516.386C566.926 516.993 567.29 517.541 567.76 517.99C568.276 518.339 568.842 518.605 569.44 518.78C574.686 520.785 579.207 524.322 582.417 528.93C585.627 533.538 587.377 539.004 587.44 544.62C589.087 543.66 590.498 542.342 591.568 540.763C592.637 539.185 593.339 537.386 593.62 535.5C593.62 538.98 596.62 542.5 594.92 545.61C596.775 544.398 598.357 542.814 599.568 540.958C600.778 539.103 601.59 537.016 601.952 534.831C602.314 532.645 602.218 530.408 601.67 528.261C601.122 526.115 600.135 524.105 598.77 522.36C597.45 520.68 595.77 519.28 594.39 517.67C592.431 515.408 590.959 512.767 590.068 509.91C589.177 507.054 588.885 504.044 589.21 501.07C589.5 498.54 590.21 495.98 589.68 493.49C588.91 490.04 585.88 487.64 583 485.59C580.975 484.066 578.805 482.746 576.52 481.65C573.494 480.397 570.293 479.618 567.03 479.34C559.82 478.53 553.41 479.65 548.94 485.74C548.035 487.132 546.874 488.339 545.52 489.3C544.517 489.774 543.579 490.376 542.73 491.09C540.44 493.63 541.74 497.83 543.86 500Z" fill="#2A3E4C"/>
<path d="M409 353.59C408.59 353.42 380.09 341.65 384 339.31C386.33 337.92 389.2 332.04 391.16 327.43C392.53 324.22 393.46 321.62 393.46 321.62C393.46 321.62 416.34 317.56 408.15 331.62C406.859 333.772 405.886 336.1 405.26 338.53C402.9 348.03 408.77 353.41 409 353.59Z" fill="#A1616A"/>
<path opacity="0.1" d="M408.12 331.58C406.829 333.732 405.856 336.06 405.23 338.49C402.329 338.283 399.539 337.289 397.16 335.615C394.781 333.942 392.904 331.651 391.73 328.99C391.499 328.482 391.299 327.961 391.13 327.43C392.5 324.22 393.43 321.62 393.43 321.62C393.43 321.62 416.31 317.56 408.12 331.58Z" fill="#E5AB17"/>
<path d="M422.34 322.02C422.323 325.678 421.054 329.22 418.743 332.056C416.432 334.891 413.219 336.849 409.639 337.604C406.06 338.358 402.33 337.863 399.071 336.201C395.812 334.539 393.221 331.81 391.73 328.47C390.828 326.44 390.364 324.242 390.37 322.02C390.39 318.179 391.791 314.473 394.318 311.58C396.844 308.686 400.328 306.798 404.131 306.261C407.935 305.723 411.804 306.572 415.034 308.652C418.263 310.732 420.636 313.905 421.72 317.59C422.131 319.031 422.339 320.522 422.34 322.02Z" fill="#A1616A"/>
<path opacity="0.1" d="M437.76 445.87C436.615 447.117 435.816 448.64 435.44 450.29C435.44 450.29 427.58 455.66 428.1 452.29C428.62 448.92 424 435.09 424 435.09L424.52 453.83C424.52 453.83 399.37 452.65 397.52 450.83C395.67 449.01 385 445.44 385 445.44C385 445.44 381.71 448.08 378.68 450.08C378.28 447.82 377.99 445.83 377.99 445.83L388.8 437.12L415.8 430.04L425.94 426.78L435.83 442.37C435.83 442.37 436.85 443.99 437.76 445.87Z" fill="#E5AB17"/>
<path d="M438.58 444.39C436.49 445.7 435.7 449.24 435.7 449.24C435.7 449.24 427.84 454.61 428.36 451.24C428.88 447.87 424.3 434.08 424.3 434.08L424.83 452.82C424.83 452.82 399.67 451.64 397.83 449.82C395.99 448 385.25 444.45 385.25 444.45C385.25 444.45 375.95 451.92 374.25 451.26C372.55 450.6 377.25 437.9 377.25 437.9L382.09 363.48C382.09 363.48 380.78 341.34 382.75 340.55C383.054 340.43 383.332 340.253 383.57 340.03C384.87 338.87 385.26 336.51 385.37 334.52C385.5 332.17 388.64 333.34 388.64 333.34L386.81 335.7L403.05 345.57L403.19 345.66C403.839 345.326 404.507 345.029 405.19 344.77C406.63 344.22 408.54 343.7 409.79 344.22C410.488 344.578 411.081 345.112 411.51 345.77C412.439 347.161 413.182 348.667 413.72 350.25L419.62 360.2C419.62 360.2 422.62 373.44 422.62 373.96C422.62 374.48 423.54 386.54 424.62 387.85C425.7 389.16 426.72 395.71 426.33 397.68C425.94 399.65 426.98 406.98 426.98 406.98C431.31 410.52 433.53 422.57 433.53 422.57C433.53 422.57 440.35 436.07 440.87 437.64C441.39 439.21 440.68 443.08 438.58 444.39Z" fill="#444053"/>
<path opacity="0.1" d="M403.07 346.04C401.47 348.4 396.87 351.71 396.87 351.71L383.59 340.5C384.89 339.34 385.28 336.97 385.39 334.99C385.52 332.63 388.66 333.81 388.66 333.81L388.28 334.3C388.099 334.535 387.969 334.806 387.899 335.095C387.829 335.384 387.821 335.685 387.875 335.977C387.928 336.269 388.043 336.547 388.211 336.792C388.379 337.037 388.597 337.244 388.85 337.4L403.07 346.04Z" fill="#E5AB17"/>
<path d="M403.07 345.51C401.47 347.87 396.87 351.19 396.87 351.19L383.59 339.97C384.89 338.81 385.28 336.45 385.39 334.46C385.52 332.11 388.66 333.28 388.66 333.28L388.28 333.77C388.099 334.005 387.969 334.276 387.899 334.565C387.829 334.854 387.821 335.155 387.875 335.447C387.928 335.739 388.043 336.017 388.211 336.262C388.379 336.507 388.597 336.714 388.85 336.87L403.07 345.51Z" fill="#444053"/>
<path opacity="0.1" d="M409.21 347.28C407.49 349.33 405.06 351.66 405.21 350.49C405.36 349.32 403.76 346.75 402.77 345.6C404.327 345.11 406.002 345.156 407.53 345.73C408.214 346.094 408.792 346.628 409.21 347.28Z" fill="#E5AB17"/>
<path d="M409.47 346.49C407.75 348.55 405.32 350.87 405.47 349.71C405.62 348.55 404.18 346.65 403.18 345.5C404.62 344.95 406.53 344.43 407.78 344.95C408.469 345.305 409.052 345.837 409.47 346.49Z" fill="#444053"/>
<path opacity="0.1" d="M383.6 340.62C383.6 340.62 383.77 339.05 381.5 341.76C379.595 343.747 377.404 345.439 375 346.78C375 346.78 365.31 353.6 364.78 356.78C364.25 359.96 361.11 373.55 362.78 378.09C364.45 382.63 377.11 404.39 377.11 404.39C377.11 404.39 373.79 408.32 374.57 412.95C375.35 417.58 376.32 423.95 375.88 425.35C375.44 426.75 376.41 430.24 374.88 431.46C373.35 432.68 371.83 434.78 376.46 437.58C376.46 437.58 377.33 439.94 376.54 440.46C375.75 440.98 388.16 446.4 393.05 443.52C397.94 440.64 406.77 417.58 406.94 412.42C407.11 407.26 404.23 390.24 402.66 386.22C401.09 382.2 396.37 366.56 394.36 363.07C392.35 359.58 383.6 340.62 383.6 340.62Z" fill="#E5AB17"/>
<path d="M383.07 340.62C383.07 340.62 383.25 339.05 380.98 341.76C379.063 343.765 376.855 345.471 374.43 346.82C374.43 346.82 364.73 353.64 364.21 356.82C363.69 360 360.54 373.59 362.21 378.13C363.88 382.67 376.53 404.43 376.53 404.43C376.53 404.43 373.21 408.36 374 412.99C374.79 417.62 375.75 423.99 375.31 425.39C374.87 426.79 375.83 430.28 374.31 431.5C372.79 432.72 371.25 434.82 375.88 437.62C375.88 437.62 376.76 439.98 375.97 440.5C375.18 441.02 387.59 446.44 392.48 443.56C397.37 440.68 406.19 417.62 406.37 412.46C406.55 407.3 403.66 390.28 402.09 386.26C400.52 382.24 395.8 366.6 393.79 363.11C391.78 359.62 383.07 340.62 383.07 340.62Z" fill="#DC4618"/>
<path opacity="0.1" d="M379.58 355.47C379.58 355.47 387.09 363.77 386.83 369.27C386.83 369.27 386.92 360.36 379.58 355.47Z" fill="#E5AB17"/>
<path opacity="0.1" d="M404.93 343.59C404.93 343.59 409.8 340.59 415.93 348.22C415.93 348.22 420.38 350.75 421.69 351.37C423 351.99 424.49 368.22 424.49 368.22C424.49 368.22 427.37 375.22 426.58 379.22C425.79 383.22 428.86 397.04 428.86 397.04C428.86 397.04 433.92 421.85 433.75 422.54C433.58 423.23 428.59 414.77 428.68 410.54C428.77 406.31 424.49 393.24 423.88 392.46C423.27 391.68 419.07 369.22 419.07 369.22C419.07 369.22 415.67 359.7 413.48 356.56C411.29 353.42 408.59 347.47 407.48 346.42C406.665 345.717 405.757 345.131 404.78 344.68L404.93 343.59Z" fill="#E5AB17"/>
<path d="M404.87 343.59C404.87 343.59 410.33 340.59 416.44 348.22C416.44 348.22 420.9 350.75 422.21 351.37C423.52 351.99 425 368.22 425 368.22C425 368.22 427.88 375.22 427.1 379.22C426.32 383.22 429.37 397.04 429.37 397.04C429.37 397.04 434.44 421.85 434.26 422.54C434.08 423.23 429.11 414.77 429.19 410.54C429.27 406.31 425 393.24 424.39 392.46C423.78 391.68 419.59 369.22 419.59 369.22C419.59 369.22 416.18 359.78 414 356.61C411.82 353.44 409.1 347.52 408 346.47C407.029 345.712 405.937 345.124 404.77 344.73L404.87 343.59Z" fill="#DC4618"/>
<path d="M428.85 398.18C428.85 398.18 439.24 391.37 444.26 394.73C449.28 398.09 457.5 402.86 449.42 406.31C441.34 409.76 430.16 409.1 430.16 409.1L428.85 398.18Z" fill="#A1616A"/>
<path opacity="0.1" d="M421.62 463.91C420.07 467.24 418.79 483.91 417.92 489.23C416.68 487.1 415.18 484.56 414.67 483.76C413.499 481.23 412.481 478.632 411.62 475.98C412.62 473.58 415.33 466.7 415.33 464.18C415.33 461.1 420.33 457.23 420.33 457.23C421.224 458.064 421.83 459.16 422.062 460.36C422.294 461.56 422.139 462.803 421.62 463.91Z" fill="#E5AB17"/>
<path opacity="0.1" d="M421.72 317.59C421.47 317.72 421.209 317.827 420.94 317.91C419.71 318.24 418.51 317.41 417.42 316.75C416.33 316.09 414.82 315.6 413.87 316.46C412.64 317.58 413.53 319.97 412.26 321.05C411.46 321.74 410.19 321.5 409.26 322.05C408.33 322.6 408.1 323.85 407.87 324.91C407.64 325.97 407.2 327.19 406.15 327.5C405.1 327.81 404.15 327.13 403.15 327.16C402.94 327.16 402.69 327.16 402.55 327.04C402.457 326.902 402.421 326.734 402.45 326.57C402.574 325.297 402.459 324.011 402.11 322.78C401.927 322.165 401.584 321.61 401.117 321.171C400.65 320.732 400.075 320.425 399.45 320.28C397.61 320 396.06 321.61 394.98 323.13C393.845 324.73 392.813 326.4 391.89 328.13C391.84 328.22 391.79 328.34 391.73 328.48C390.828 326.45 390.364 324.252 390.37 322.03C390.39 318.189 391.791 314.483 394.318 311.59C396.844 308.696 400.328 306.808 404.131 306.271C407.935 305.733 411.804 306.582 415.034 308.662C418.263 310.742 420.636 313.915 421.72 317.6V317.59Z" fill="#E5AB17"/>
<path d="M395 322.88C396.08 321.36 397.63 319.75 399.47 320.03C400.093 320.175 400.667 320.481 401.134 320.918C401.601 321.355 401.944 321.908 402.13 322.52C402.48 323.751 402.592 325.037 402.46 326.31C402.437 326.478 402.476 326.649 402.57 326.79C402.71 326.95 402.96 326.92 403.17 326.91C404.17 326.91 405.22 327.54 406.17 327.25C407.12 326.96 407.67 325.72 407.89 324.66C408.11 323.6 408.36 322.38 409.28 321.8C410.2 321.22 411.45 321.47 412.28 320.8C413.55 319.72 412.66 317.32 413.89 316.21C414.84 315.35 416.35 315.84 417.44 316.5C418.53 317.16 419.73 317.99 420.96 317.66C421.367 317.515 421.764 317.345 422.15 317.15C424.1 316.41 426.62 317.67 428.21 316.34C428.79 315.758 429.207 315.034 429.42 314.24C429.861 313.174 430.157 312.054 430.3 310.91C430.443 309.75 430.127 308.58 429.42 307.65C428.42 306.43 426.62 306.12 425.29 305.22C424.212 304.372 423.317 303.314 422.66 302.11C422.003 300.906 421.136 299.829 420.1 298.93C419.574 298.488 418.937 298.198 418.259 298.092C417.58 297.987 416.885 298.069 416.25 298.33C415.868 298.599 415.441 298.798 414.99 298.92C414.499 298.931 414.016 298.799 413.6 298.54C409.06 296.4 403.77 296.78 398.79 297.42C396.781 297.578 394.81 298.054 392.95 298.83C392.022 299.222 391.189 299.811 390.509 300.555C389.829 301.298 389.318 302.18 389.01 303.14C388.61 304.68 388.92 306.35 388.43 307.87C388.1 308.87 387.43 309.78 387.03 310.79C385.97 313.55 387.24 316.59 387.78 319.5C388.37 322.68 388.07 326.12 389.42 329.13C389.69 329.72 389.98 330.75 390.65 330.36C391.14 330.07 391.65 328.36 391.9 327.87C392.831 326.145 393.866 324.479 395 322.88Z" fill="#2A3E4C"/>
<path opacity="0.1" d="M366.22 374.08L363.86 380.78C363.86 380.78 369.45 401.57 372.07 405.94C374.69 410.31 378.53 415.94 378.53 415.94C382.917 417.909 387.794 418.516 392.53 417.68C400.04 416.2 421.96 412.27 421.96 412.27C422.478 412.364 423.012 412.315 423.504 412.131C423.997 411.946 424.431 411.631 424.76 411.22C425.76 409.82 430.7 409.12 430.7 409.12C430.7 409.12 436.46 400.74 429.39 397.24C429.39 397.24 428.52 399.17 424.76 397.85C421 396.53 419.87 398.9 419.87 398.9C419.87 398.9 413.75 400.13 410.35 399.69C406.95 399.25 398.47 399.08 397.59 398.38C397.481 398.283 397.354 398.208 397.216 398.159C397.078 398.111 396.932 398.091 396.786 398.099C396.64 398.107 396.498 398.144 396.366 398.208C396.235 398.272 396.117 398.361 396.02 398.47C395.007 398.105 394.064 397.57 393.23 396.89C392.53 396.11 391.57 397.77 391.57 397.77C391.57 397.77 390.34 397.07 390.69 396.2C391.04 395.33 389.56 392 389.56 392C389.165 390.729 389.076 389.382 389.3 388.07C389.73 386.32 387.11 380.07 387.11 380.07C387.079 379.009 387.196 377.948 387.46 376.92C387.9 375.35 384.14 372.2 384.14 372.2C384.14 372.2 380.47 354.39 372.7 360.2C364.93 366.01 366.22 374.08 366.22 374.08Z" fill="#E5AB17"/>
<path d="M365.69 374.08L363.33 380.78C363.33 380.78 368.92 401.57 371.54 405.94C374.16 410.31 378.01 415.94 378.01 415.94C382.396 417.913 387.275 418.519 392.01 417.68C399.53 416.2 421.45 412.27 421.45 412.27C421.968 412.364 422.502 412.315 422.995 412.131C423.488 411.946 423.921 411.631 424.25 411.22C425.25 409.82 430.19 409.12 430.19 409.12C430.19 409.12 435.95 400.74 428.88 397.24C428.88 397.24 428 399.17 424.25 397.85C420.5 396.53 419.35 398.9 419.35 398.9C419.35 398.9 413.24 400.13 409.83 399.69C406.42 399.25 397.95 399.08 397.08 398.38C396.971 398.283 396.844 398.208 396.706 398.159C396.568 398.111 396.422 398.091 396.276 398.099C396.131 398.107 395.988 398.144 395.856 398.208C395.725 398.272 395.607 398.361 395.51 398.47C394.494 398.106 393.547 397.571 392.71 396.89C392.01 396.11 391.05 397.77 391.05 397.77C391.05 397.77 389.83 397.07 390.18 396.2C390.53 395.33 389.04 392 389.04 392C388.651 390.728 388.562 389.382 388.78 388.07C389.22 386.32 386.6 380.07 386.6 380.07C386.563 379.009 386.681 377.947 386.95 376.92C387.38 375.35 383.63 372.2 383.63 372.2C383.63 372.2 379.96 354.39 372.19 360.2C364.42 366.01 365.69 374.08 365.69 374.08Z" fill="#DC4618"/>
<path opacity="0.1" d="M387.27 394.34C387.27 394.34 378.71 396.09 381.59 397.57C384.47 399.05 387.27 394.34 387.27 394.34Z" fill="#E5AB17"/>
<g opacity="0.1">
<path opacity="0.1" d="M402.11 321.04C401.928 320.426 401.586 319.871 401.118 319.434C400.651 318.996 400.075 318.691 399.45 318.55C397.61 318.27 396.06 319.88 394.98 321.39C393.846 322.992 392.811 324.662 391.88 326.39C391.6 326.91 391.12 328.59 390.63 328.88C389.96 329.27 389.63 328.23 389.4 327.64C388.05 324.64 388.4 321.19 387.76 318.01C387.287 316.161 386.91 314.288 386.63 312.4C386.43 314.68 387.33 317.08 387.76 319.4C388.35 322.58 388.05 326.02 389.4 329.03C389.67 329.62 389.96 330.65 390.63 330.26C391.12 329.97 391.63 328.26 391.88 327.78C392.808 326.051 393.844 324.381 394.98 322.78C396.06 321.26 397.61 319.65 399.45 319.94C400.075 320.081 400.651 320.386 401.118 320.824C401.586 321.261 401.928 321.816 402.11 322.43C402.325 323.076 402.443 323.75 402.46 324.43C402.56 323.288 402.441 322.137 402.11 321.04Z" fill="#E5AB17"/>
<path opacity="0.1" d="M429.4 312.78C429.189 313.572 428.771 314.293 428.19 314.87C426.6 316.2 424.08 314.95 422.13 315.69C421.73 315.84 421.36 316.08 420.94 316.2C419.71 316.52 418.51 315.7 417.42 315.04C416.33 314.38 414.82 313.88 413.87 314.74C412.64 315.86 413.53 318.25 412.26 319.33C411.46 320.02 410.19 319.78 409.26 320.33C408.33 320.88 408.1 322.12 407.87 323.18C407.64 324.24 407.2 325.46 406.15 325.77C405.1 326.08 404.15 325.4 403.15 325.44C402.94 325.44 402.69 325.44 402.55 325.32C402.515 325.284 402.491 325.239 402.48 325.19C402.48 325.54 402.48 325.89 402.48 326.24C402.459 326.405 402.498 326.572 402.59 326.71C402.73 326.87 402.98 326.84 403.19 326.84C404.19 326.84 405.24 327.46 406.19 327.17C407.14 326.88 407.69 325.65 407.91 324.58C408.13 323.51 408.38 322.31 409.3 321.73C410.22 321.15 411.47 321.4 412.3 320.73C413.57 319.65 412.68 317.26 413.91 316.14C414.86 315.28 416.37 315.77 417.46 316.43C418.55 317.09 419.75 317.92 420.98 317.59C421.385 317.444 421.782 317.277 422.17 317.09C424.12 316.35 426.64 317.6 428.23 316.27C428.81 315.691 429.227 314.971 429.44 314.18C429.88 313.11 430.176 311.987 430.32 310.84C430.365 310.451 430.365 310.059 430.32 309.67C430.128 310.737 429.82 311.78 429.4 312.78Z" fill="#E5AB17"/>
</g>
<path d="M255 573.44C277.6 573.44 295.92 569.916 295.92 565.57C295.92 561.224 277.6 557.7 255 557.7C232.401 557.7 214.08 561.224 214.08 565.57C214.08 569.916 232.401 573.44 255 573.44Z" fill="#DC4618"/>
<path d="M254.32 568.47C256.949 568.47 259.08 565.676 259.08 562.23C259.08 558.784 256.949 555.99 254.32 555.99C251.691 555.99 249.56 558.784 249.56 562.23C249.56 565.676 251.691 568.47 254.32 568.47Z" fill="#2A3E4C"/>
<path d="M254.32 560.85C256.949 560.85 259.08 558.056 259.08 554.61C259.08 551.164 256.949 548.37 254.32 548.37C251.691 548.37 249.56 551.164 249.56 554.61C249.56 558.056 251.691 560.85 254.32 560.85Z" fill="#2A3E4C"/>
<path d="M254.32 553.23C256.949 553.23 259.08 550.436 259.08 546.99C259.08 543.544 256.949 540.75 254.32 540.75C251.691 540.75 249.56 543.544 249.56 546.99C249.56 550.436 251.691 553.23 254.32 553.23Z" fill="#2A3E4C"/>
<path d="M254.32 545.6C256.949 545.6 259.08 542.806 259.08 539.36C259.08 535.914 256.949 533.12 254.32 533.12C251.691 533.12 249.56 535.914 249.56 539.36C249.56 542.806 251.691 545.6 254.32 545.6Z" fill="#2A3E4C"/>
<path d="M254.32 537.98C256.949 537.98 259.08 535.186 259.08 531.74C259.08 528.294 256.949 525.5 254.32 525.5C251.691 525.5 249.56 528.294 249.56 531.74C249.56 535.186 251.691 537.98 254.32 537.98Z" fill="#2A3E4C"/>
<path d="M254.32 530.36C256.949 530.36 259.08 527.566 259.08 524.12C259.08 520.674 256.949 517.88 254.32 517.88C251.691 517.88 249.56 520.674 249.56 524.12C249.56 527.566 251.691 530.36 254.32 530.36Z" fill="#2A3E4C"/>
<path d="M254.32 522.74C256.949 522.74 259.08 519.946 259.08 516.5C259.08 513.054 256.949 510.26 254.32 510.26C251.691 510.26 249.56 513.054 249.56 516.5C249.56 519.946 251.691 522.74 254.32 522.74Z" fill="#2A3E4C"/>
<path d="M272.15 464.34C272.801 463.51 273.393 462.634 273.92 461.72L261.41 459.67L274.94 459.77C276.239 456.945 276.947 453.884 277.023 450.775C277.099 447.667 276.54 444.575 275.38 441.69L257.22 451.11L274 438.78C272.429 436.071 270.317 433.715 267.797 431.858C265.276 430 262.4 428.682 259.347 427.984C256.295 427.285 253.132 427.223 250.054 427.8C246.977 428.377 244.051 429.581 241.459 431.338C238.867 433.094 236.664 435.366 234.987 438.01C233.31 440.655 232.196 443.616 231.713 446.709C231.23 449.803 231.389 452.963 232.18 455.993C232.971 459.023 234.377 461.857 236.31 464.32C235.294 465.608 234.423 467.003 233.71 468.48L249.95 476.92L232.63 471.1C231.409 474.696 231.105 478.54 231.748 482.282C232.391 486.025 233.959 489.548 236.31 492.53C233.662 495.896 232.014 499.939 231.556 504.197C231.098 508.455 231.847 512.756 233.718 516.609C235.589 520.461 238.506 523.71 242.136 525.982C245.766 528.255 249.962 529.46 254.245 529.46C258.528 529.46 262.724 528.255 266.354 525.982C269.984 523.71 272.901 520.461 274.772 516.609C276.643 512.756 277.392 508.455 276.934 504.197C276.475 499.939 274.828 495.896 272.18 492.53C275.342 488.508 277.061 483.541 277.061 478.425C277.061 473.309 275.342 468.342 272.18 464.32L272.15 464.34Z" fill="#DC4618"/>
<path opacity="0.1" d="M231.39 478.44C231.383 483.56 233.106 488.532 236.28 492.55C233.632 495.916 231.984 499.959 231.526 504.217C231.068 508.475 231.817 512.777 233.688 516.629C235.559 520.481 238.476 523.73 242.106 526.002C245.736 528.275 249.932 529.48 254.215 529.48C258.498 529.48 262.694 528.275 266.324 526.002C269.954 523.73 272.871 520.481 274.742 516.629C276.613 512.777 277.362 508.475 276.904 504.217C276.445 499.959 274.798 495.916 272.15 492.55C275.21 488.67 231.39 475.88 231.39 478.44Z" fill="#E5AB17"/>
<path d="M940 646.44C962.6 646.44 980.92 642.916 980.92 638.57C980.92 634.224 962.6 630.7 940 630.7C917.401 630.7 899.08 634.224 899.08 638.57C899.08 642.916 917.401 646.44 940 646.44Z" fill="#DC4618"/>
<path d="M939.32 641.47C941.949 641.47 944.08 638.676 944.08 635.23C944.08 631.784 941.949 628.99 939.32 628.99C936.691 628.99 934.56 631.784 934.56 635.23C934.56 638.676 936.691 641.47 939.32 641.47Z" fill="#2A3E4C"/>
<path d="M939.32 633.85C941.949 633.85 944.08 631.056 944.08 627.61C944.08 624.164 941.949 621.37 939.32 621.37C936.691 621.37 934.56 624.164 934.56 627.61C934.56 631.056 936.691 633.85 939.32 633.85Z" fill="#2A3E4C"/>
<path d="M939.32 626.23C941.949 626.23 944.08 623.436 944.08 619.99C944.08 616.544 941.949 613.75 939.32 613.75C936.691 613.75 934.56 616.544 934.56 619.99C934.56 623.436 936.691 626.23 939.32 626.23Z" fill="#2A3E4C"/>
<path d="M939.32 618.6C941.949 618.6 944.08 615.806 944.08 612.36C944.08 608.914 941.949 606.12 939.32 606.12C936.691 606.12 934.56 608.914 934.56 612.36C934.56 615.806 936.691 618.6 939.32 618.6Z" fill="#2A3E4C"/>
<path d="M939.32 610.98C941.949 610.98 944.08 608.186 944.08 604.74C944.08 601.294 941.949 598.5 939.32 598.5C936.691 598.5 934.56 601.294 934.56 604.74C934.56 608.186 936.691 610.98 939.32 610.98Z" fill="#2A3E4C"/>
<path d="M939.32 603.36C941.949 603.36 944.08 600.566 944.08 597.12C944.08 593.674 941.949 590.88 939.32 590.88C936.691 590.88 934.56 593.674 934.56 597.12C934.56 600.566 936.691 603.36 939.32 603.36Z" fill="#2A3E4C"/>
<path d="M939.32 595.74C941.949 595.74 944.08 592.946 944.08 589.5C944.08 586.054 941.949 583.26 939.32 583.26C936.691 583.26 934.56 586.054 934.56 589.5C934.56 592.946 936.691 595.74 939.32 595.74Z" fill="#2A3E4C"/>
<path d="M957.15 537.34C957.801 536.51 958.393 535.634 958.92 534.72L946.41 532.67L959.94 532.77C961.239 529.945 961.947 526.884 962.023 523.775C962.099 520.667 961.54 517.575 960.38 514.69L942.22 524.11L959 511.78C957.429 509.071 955.317 506.715 952.797 504.858C950.276 503 947.4 501.682 944.347 500.984C941.295 500.285 938.132 500.223 935.054 500.8C931.977 501.377 929.051 502.581 926.459 504.338C923.867 506.094 921.664 508.366 919.987 511.01C918.31 513.655 917.196 516.616 916.713 519.709C916.23 522.803 916.389 525.963 917.18 528.993C917.971 532.023 919.377 534.857 921.31 537.32C920.294 538.608 919.423 540.003 918.71 541.48L934.95 549.92L917.63 544.1C916.409 547.696 916.105 551.54 916.748 555.282C917.391 559.025 918.959 562.548 921.31 565.53C918.662 568.896 917.014 572.939 916.556 577.197C916.098 581.455 916.847 585.756 918.718 589.609C920.589 593.461 923.506 596.71 927.136 598.982C930.766 601.255 934.962 602.46 939.245 602.46C943.528 602.46 947.724 601.255 951.354 598.982C954.984 596.71 957.901 593.461 959.772 589.609C961.643 585.756 962.392 581.455 961.934 577.197C961.475 572.939 959.828 568.896 957.18 565.53C960.342 561.508 962.061 556.541 962.061 551.425C962.061 546.309 960.342 541.342 957.18 537.32L957.15 537.34Z" fill="#DC4618"/>
<path opacity="0.1" d="M916.39 551.44C916.383 556.56 918.106 561.532 921.28 565.55C918.632 568.916 916.985 572.959 916.526 577.217C916.068 581.475 916.817 585.777 918.688 589.629C920.559 593.481 923.476 596.73 927.106 599.002C930.736 601.275 934.932 602.48 939.215 602.48C943.498 602.48 947.694 601.275 951.324 599.002C954.954 596.73 957.872 593.481 959.742 589.629C961.613 585.777 962.362 581.475 961.904 577.217C961.446 572.959 959.798 568.916 957.15 565.55C960.21 561.67 916.39 548.88 916.39 551.44Z" fill="#E5AB17"/>
<path opacity="0.1" d="M404.43 108.96C412.863 108.96 419.7 102.123 419.7 93.69C419.7 85.2566 412.863 78.42 404.43 78.42C395.997 78.42 389.16 85.2566 389.16 93.69C389.16 102.123 395.997 108.96 404.43 108.96Z" fill="#E5AB17"/>
<path opacity="0.1" d="M459.06 51.2C473.198 51.2 484.66 39.7385 484.66 25.6C484.66 11.4615 473.198 0 459.06 0C444.921 0 433.46 11.4615 433.46 25.6C433.46 39.7385 444.921 51.2 459.06 51.2Z" fill="#E5AB17"/>
<path opacity="0.1" d="M425.18 175.42C439.319 175.42 450.78 163.958 450.78 149.82C450.78 135.682 439.319 124.22 425.18 124.22C411.042 124.22 399.58 135.682 399.58 149.82C399.58 163.958 411.042 175.42 425.18 175.42Z" fill="#E5AB17"/>
<path opacity="0.1" d="M963.93 292.96C972.364 292.96 979.2 286.123 979.2 277.69C979.2 269.257 972.364 262.42 963.93 262.42C955.497 262.42 948.66 269.257 948.66 277.69C948.66 286.123 955.497 292.96 963.93 292.96Z" fill="#E5AB17"/>
<path opacity="0.1" d="M909.29 235.2C923.428 235.2 934.89 223.738 934.89 209.6C934.89 195.462 923.428 184 909.29 184C895.151 184 883.69 195.462 883.69 209.6C883.69 223.738 895.151 235.2 909.29 235.2Z" fill="#E5AB17"/>
<path opacity="0.1" d="M943.18 359.42C957.319 359.42 968.78 347.958 968.78 333.82C968.78 319.682 957.319 308.22 943.18 308.22C929.042 308.22 917.58 319.682 917.58 333.82C917.58 347.958 929.042 359.42 943.18 359.42Z" fill="#E5AB17"/>
<path opacity="0.1" d="M100.77 314C105.547 314 109.42 310.127 109.42 305.35C109.42 300.573 105.547 296.7 100.77 296.7C95.9928 296.7 92.1201 300.573 92.1201 305.35C92.1201 310.127 95.9928 314 100.77 314Z" fill="#E5AB17"/>
<path opacity="0.1" d="M137.85 287.11C145.858 287.11 152.35 280.618 152.35 272.61C152.35 264.602 145.858 258.11 137.85 258.11C129.842 258.11 123.35 264.602 123.35 272.61C123.35 280.618 129.842 287.11 137.85 287.11Z" fill="#E5AB17"/>
<path opacity="0.1" d="M68.4499 309.6C76.4581 309.6 82.9499 303.108 82.9499 295.1C82.9499 287.092 76.4581 280.6 68.4499 280.6C60.4418 280.6 53.95 287.092 53.95 295.1C53.95 303.108 60.4418 309.6 68.4499 309.6Z" fill="#E5AB17"/>
<path opacity="0.1" d="M741.77 262C746.547 262 750.42 258.127 750.42 253.35C750.42 248.573 746.547 244.7 741.77 244.7C736.993 244.7 733.12 248.573 733.12 253.35C733.12 258.127 736.993 262 741.77 262Z" fill="#E5AB17"/>
<path opacity="0.1" d="M778.85 235.11C786.858 235.11 793.35 228.618 793.35 220.61C793.35 212.602 786.858 206.11 778.85 206.11C770.842 206.11 764.35 212.602 764.35 220.61C764.35 228.618 770.842 235.11 778.85 235.11Z" fill="#E5AB17"/>
<path opacity="0.1" d="M709.45 257.6C717.458 257.6 723.95 251.108 723.95 243.1C723.95 235.092 717.458 228.6 709.45 228.6C701.442 228.6 694.95 235.092 694.95 243.1C694.95 251.108 701.442 257.6 709.45 257.6Z" fill="#E5AB17"/>
<path opacity="0.1" d="M216.58 178.57C236.6 178.57 252.83 162.34 252.83 142.32C252.83 122.3 236.6 106.07 216.58 106.07C196.56 106.07 180.33 122.3 180.33 142.32C180.33 162.34 196.56 178.57 216.58 178.57Z" fill="#E5AB17"/>
<path opacity="0.1" d="M423.58 283.24C435.134 283.24 444.5 273.874 444.5 262.32C444.5 250.766 435.134 241.4 423.58 241.4C412.026 241.4 402.66 250.766 402.66 262.32C402.66 273.874 412.026 283.24 423.58 283.24Z" fill="#E5AB17"/>
<path opacity="0.1" d="M630.58 419.24C642.134 419.24 651.5 409.874 651.5 398.32C651.5 386.766 642.134 377.4 630.58 377.4C619.026 377.4 609.66 386.766 609.66 398.32C609.66 409.874 619.026 419.24 630.58 419.24Z" fill="#E5AB17"/>
<path d="M255 592.57C320.998 592.57 374.5 581.825 374.5 568.57C374.5 555.315 320.998 544.57 255 544.57C189.002 544.57 135.5 555.315 135.5 568.57C135.5 581.825 189.002 592.57 255 592.57Z" stroke="#3A8EAA" stroke-miterlimit="10"/>
<path d="M940 663.57C1006 663.57 1059.5 652.825 1059.5 639.57C1059.5 626.315 1006 615.57 940 615.57C874.002 615.57 820.5 626.315 820.5 639.57C820.5 652.825 874.002 663.57 940 663.57Z" stroke="#E5AB17" stroke-miterlimit="10"/>
<path d="M120 663.57C185.998 663.57 239.5 652.825 239.5 639.57C239.5 626.315 185.998 615.57 120 615.57C54.002 615.57 0.5 626.315 0.5 639.57C0.5 652.825 54.002 663.57 120 663.57Z" stroke="#E5AB17" stroke-miterlimit="10"/>
</g>
<defs>
<linearGradient id="paint0_linear_20_224" x1="408.64" y1="595.67" x2="408.64" y2="295.26" gradientUnits="userSpaceOnUse">
<stop stop-color="#808080" stop-opacity="0.25"/>
<stop offset="0.54" stop-color="#808080" stop-opacity="0.12"/>
<stop offset="1" stop-color="#808080" stop-opacity="0.1"/>
</linearGradient>
<linearGradient id="paint1_linear_20_224" x1="-45610.3" y1="119544" x2="-53263.3" y2="119544" gradientUnits="userSpaceOnUse">
<stop stop-color="#808080" stop-opacity="0.25"/>
<stop offset="0.54" stop-color="#808080" stop-opacity="0.12"/>
<stop offset="1" stop-color="#808080" stop-opacity="0.1"/>
</linearGradient>
<clipPath id="clip0_20_224">
<rect width="1060" height="664.07" fill="white"/>
</clipPath>
</defs>
</svg>
