<svg width="30" height="24" viewBox="0 0 30 24" fill="none" xmlns="http://www.w3.org/2000/svg">
<path d="M26.5713 10.962C27.1638 11.582 27.1638 12.419 26.5713 13.038C24.705 14.987 20.2275 19 15 19C9.77251 19 5.29501 14.987 3.42876 13.038C3.14049 12.7411 2.98401 12.3759 2.98401 12C2.98401 11.6241 3.14049 11.2589 3.42876 10.962C5.29501 9.013 9.77251 5 15 5C20.2275 5 24.705 9.013 26.5713 10.962V10.962Z" stroke="#2A3E4C" stroke-opacity="0.8" stroke-width="2.66667" stroke-linecap="round" stroke-linejoin="round"/>
<path d="M15 15C17.0711 15 18.75 13.6569 18.75 12C18.75 10.3431 17.0711 9 15 9C12.9289 9 11.25 10.3431 11.25 12C11.25 13.6569 12.9289 15 15 15Z" stroke="#2A3E4C" stroke-opacity="0.8" stroke-width="2.66667" stroke-linecap="round" stroke-linejoin="round"/>
</svg>
