<svg width="1228" height="1080" viewBox="0 0 1228 1080" fill="none" xmlns="http://www.w3.org/2000/svg">
<mask id="mask0_5_3291" style="mask-type:alpha" maskUnits="userSpaceOnUse" x="0" y="-120" width="1600" height="1200">
<path d="M1600 -120H0V1080H1600V-120Z" fill="white"/>
</mask>
<g mask="url(#mask0_5_3291)">
<path fill-rule="evenodd" clip-rule="evenodd" d="M1600 -120V1080H1009.94L356 276.07L865.25 -120L1600 -120Z" fill="#EAE8E4"/>
<path d="M450 543C587.519 543 699 431.519 699 294C699 156.481 587.519 45 450 45C312.481 45 201 156.481 201 294C201 431.519 312.481 543 450 543Z" fill="#BFCBBA"/>
<path d="M1461.38 -0.233812L952.395 294.643L992.576 363.999L1501.56 69.1221L1461.38 -0.233812Z" fill="#DC4618"/>
<path fill-rule="evenodd" clip-rule="evenodd" d="M873.219 776.332L667.313 522.858L617.687 555.816L823.719 815.785L873.219 776.332Z" fill="#DC4618"/>
<path fill-rule="evenodd" clip-rule="evenodd" d="M171.224 863.293L414.414 685.623L392.075 653.475L145.57 812.898L171.224 863.293Z" fill="#EAE8E4"/>
<path d="M702.681 844.043L611.925 709L591 723.062L681.756 858.106L702.681 844.043Z" fill="#60BEBF"/>
<path fill-rule="evenodd" clip-rule="evenodd" d="M826.604 572.001L732.012 456.813L691.734 480L783.91 605.902L826.604 572.001Z" fill="#3A8EAA"/>
<path fill-rule="evenodd" clip-rule="evenodd" d="M1492.54 -292.314L511.509 393.907L559.875 457.109L1576.96 -187.469L1492.54 -292.314Z" fill="#2A3E4C"/>
<path fill-rule="evenodd" clip-rule="evenodd" d="M573.375 469.383L912.85 283.734L937.3 327.767L601.875 511.594L573.375 469.383Z" fill="#E5AB17"/>
<path d="M405.161 743L114 987.674L146.403 1026.23L437.564 781.559L405.161 743Z" fill="#EAE8E4"/>
<path fill-rule="evenodd" clip-rule="evenodd" d="M315.848 789.492L437.235 692.55L460.308 717.943L338.921 814.884L315.848 789.492Z" fill="#E5AB17"/>
<path d="M1116.34 332.616L1453.04 147.764L1465.98 173.073L1129.28 357.925L1116.34 332.616Z" fill="#28203D"/>
<path fill-rule="evenodd" clip-rule="evenodd" d="M1145.03 121.089L1470.31 -75.0206L1484.98 -50.6759L1159.7 145.434L1145.03 121.089Z" fill="#BFCBBA"/>
<path d="M1401.38 238.066L1063.15 411.045L1066.42 417.442L1404.66 244.463L1401.38 238.066Z" fill="#849C9B"/>
<path d="M828.445 844.33L238.871 102L222.124 115.301L811.698 857.631L828.445 844.33Z" fill="#28203D"/>
<path fill-rule="evenodd" clip-rule="evenodd" d="M624.656 653.079L228.268 172.368L166.207 212.766L556.273 704.414L624.656 653.079Z" fill="#849C9B"/>
<path d="M1001.39 640.097C1022.47 635.04 1035.49 613.94 1030.46 592.97C1025.43 572 1004.26 559.1 983.175 564.157C962.092 569.214 949.078 590.314 954.108 611.284C959.138 632.254 980.307 645.154 1001.39 640.097Z" fill="#849C9B"/>
<path d="M187.553 633.249C225.522 624.141 248.959 586.144 239.9 548.379C230.842 510.614 192.719 487.383 154.749 496.491C116.78 505.598 93.3433 543.596 102.402 581.36C111.46 619.125 149.584 642.356 187.553 633.249Z" fill="#EAE8E4"/>
<path d="M493.066 332.672C509.585 328.71 519.781 312.179 515.84 295.749C511.899 279.319 495.313 269.212 478.794 273.174C462.275 277.137 452.079 293.668 456.02 310.098C459.961 326.528 476.547 336.635 493.066 332.672Z" fill="#DC4618"/>
<path d="M326.002 631.858C342.441 627.915 352.588 611.464 348.666 595.114C344.744 578.764 328.239 568.706 311.8 572.649C295.361 576.592 285.215 593.043 289.136 609.393C293.058 625.743 309.564 635.801 326.002 631.858Z" fill="#BFCBBA"/>
<path d="M508.127 365.163L787.934 171.961L785.562 168.526L505.755 361.728L508.127 365.163Z" fill="#28203D"/>
<path d="M1075.34 791.576L1220.05 961.242L1225.38 956.699L1080.66 787.033L1075.34 791.576Z" fill="#28203D"/>
<path d="M164.371 -49.3862L309.165 131.424L312.423 128.815L167.629 -51.9955L164.371 -49.3862Z" fill="#28203D"/>
<path d="M262.116 825.804L78.1713 974.538L80.796 977.784L264.741 829.05L262.116 825.804Z" fill="#28203D"/>
<path fill-rule="evenodd" clip-rule="evenodd" d="M1204.59 644.609L1165.8 599.979L1169.27 596.963L1208.06 641.593L1252.69 602.797L1255.71 606.267L1211.08 645.063L1249.88 689.693L1246.41 692.709L1207.61 648.079L1162.98 686.875L1159.96 683.406L1204.59 644.609Z" fill="#DC4618"/>
<path fill-rule="evenodd" clip-rule="evenodd" d="M169.961 560.514L149.983 537.532L151.769 535.978L171.748 558.961L194.73 538.983L196.283 540.769L173.301 560.748L193.279 583.73L191.493 585.283L171.514 562.301L148.532 582.279L146.978 580.493L169.961 560.514Z" fill="#DC4618"/>
</g>
</svg>
