<svg width="35" height="35" viewBox="0 0 35 35" fill="none" xmlns="http://www.w3.org/2000/svg">
<path d="M32.8125 26.25V24.0625H30.5145C30.3735 23.3778 30.1016 22.7268 29.7139 22.1452L31.3436 20.5155L29.797 18.9689L28.1673 20.5986C27.5857 20.2109 26.9347 19.939 26.25 19.798V17.5H24.0625V19.798C23.3778 19.939 22.7268 20.2109 22.1452 20.5986L20.5155 18.9689L18.9689 20.5155L20.5986 22.1452C20.2109 22.7268 19.939 23.3778 19.798 24.0625H17.5V26.25H19.798C19.939 26.9347 20.2109 27.5857 20.5986 28.1673L18.9689 29.797L20.5155 31.3436L22.1452 29.7139C22.7268 30.1016 23.3778 30.3735 24.0625 30.5145V32.8125H26.25V30.5145C26.9347 30.3735 27.5857 30.1016 28.1673 29.7139L29.797 31.3436L31.3436 29.797L29.7139 28.1673C30.1016 27.5857 30.3735 26.9347 30.5145 26.25H32.8125ZM25.1562 28.4375C24.5073 28.4375 23.8729 28.2451 23.3333 27.8845C22.7937 27.524 22.3731 27.0115 22.1248 26.4119C21.8764 25.8124 21.8114 25.1526 21.938 24.5161C22.0647 23.8796 22.3772 23.2949 22.8361 22.8361C23.2949 22.3772 23.8796 22.0647 24.5161 21.938C25.1526 21.8114 25.8124 21.8764 26.4119 22.1248C27.0115 22.3731 27.524 22.7937 27.8845 23.3333C28.2451 23.8729 28.4375 24.5073 28.4375 25.1562C28.4366 26.0262 28.0907 26.8603 27.4755 27.4755C26.8603 28.0907 26.0262 28.4366 25.1562 28.4375Z" fill="#2A3E4C"/>
<path d="M30.625 4.375H4.375C3.79502 4.37558 3.23895 4.60623 2.82884 5.01634C2.41873 5.42645 2.18808 5.98252 2.1875 6.5625V28.4375C2.18808 29.0175 2.41873 29.5735 2.82884 29.9837C3.23895 30.3938 3.79502 30.6244 4.375 30.625H15.3125V28.4375H4.375V13.125H30.625V16.4062H32.8125V6.5625C32.8119 5.98252 32.5813 5.42645 32.1712 5.01634C31.761 4.60623 31.205 4.37558 30.625 4.375V4.375ZM30.625 10.9375H4.375V6.5625H30.625V10.9375Z" fill="#2A3E4C"/>
<path d="M21.875 9.84375C22.4791 9.84375 22.9688 9.35406 22.9688 8.75C22.9688 8.14594 22.4791 7.65625 21.875 7.65625C21.2709 7.65625 20.7812 8.14594 20.7812 8.75C20.7812 9.35406 21.2709 9.84375 21.875 9.84375Z" fill="#2A3E4C"/>
<path d="M25.1562 9.84375C25.7603 9.84375 26.25 9.35406 26.25 8.75C26.25 8.14594 25.7603 7.65625 25.1562 7.65625C24.5522 7.65625 24.0625 8.14594 24.0625 8.75C24.0625 9.35406 24.5522 9.84375 25.1562 9.84375Z" fill="#2A3E4C"/>
<path d="M28.4375 9.84375C29.0416 9.84375 29.5312 9.35406 29.5312 8.75C29.5312 8.14594 29.0416 7.65625 28.4375 7.65625C27.8334 7.65625 27.3438 8.14594 27.3438 8.75C27.3438 9.35406 27.8334 9.84375 28.4375 9.84375Z" fill="#2A3E4C"/>
</svg>
