<svg width="38" height="38" viewBox="0 0 38 38" fill="none" xmlns="http://www.w3.org/2000/svg">
<path d="M19.0001 9.5C17.3487 9.50209 15.7656 10.159 14.5979 11.3267C13.4303 12.4944 12.7733 14.0775 12.7712 15.7288H15.9379C15.9379 14.0394 17.3122 12.6667 19.0001 12.6667C20.6879 12.6667 22.0622 14.0394 22.0622 15.7288C22.0622 16.6757 21.3007 17.3628 20.1369 18.3033C19.7567 18.6012 19.3916 18.9177 19.0428 19.2518C17.4627 20.8303 17.4167 22.5071 17.4167 22.6939V23.75H20.5834L20.5818 22.7477C20.5834 22.7224 20.6341 22.1366 21.2801 21.4922C21.5176 21.2547 21.8168 21.0172 22.1272 20.767C23.3606 19.7679 25.2273 18.259 25.2273 15.7288C25.2261 14.0775 24.5696 12.4941 23.4021 11.3263C22.2346 10.1585 20.6514 9.50168 19.0001 9.5ZM17.4167 25.3333H20.5834V28.5H17.4167V25.3333Z" fill="#28203D"/>
<path d="M19 3.16663C10.2695 3.16663 3.16663 10.2695 3.16663 19C3.16663 27.7305 10.2695 34.8333 19 34.8333C27.7305 34.8333 34.8333 27.7305 34.8333 19C34.8333 10.2695 27.7305 3.16663 19 3.16663ZM19 31.6666C12.0159 31.6666 6.33329 25.984 6.33329 19C6.33329 12.0159 12.0159 6.33329 19 6.33329C25.984 6.33329 31.6666 12.0159 31.6666 19C31.6666 25.984 25.984 31.6666 19 31.6666Z" fill="#28203D"/>
</svg>
