<svg width="25" height="25" viewBox="0 0 25 25" fill="none" xmlns="http://www.w3.org/2000/svg">
<path d="M11.5176 0.038676C14.0412 -0.160289 16.5658 0.411683 18.7573 1.67891C20.9488 2.94614 22.7039 4.84889 23.7903 7.13539C24.8767 9.4219 25.2433 11.9844 24.8416 14.4838C24.4398 16.9832 23.2886 19.3017 21.5404 21.1326C19.7921 22.9634 17.5291 24.2203 15.0509 24.7369C12.5727 25.2535 9.99603 25.0055 7.66184 24.0257C5.32766 23.0459 3.34598 21.3804 1.97903 19.2497C0.61207 17.119 -0.0757349 14.6235 0.00661855 12.0934C0.0112353 11.9395 0.046118 11.788 0.109276 11.6476C0.172433 11.5072 0.262629 11.3806 0.374712 11.275C0.486795 11.1695 0.618571 11.087 0.762516 11.0324C0.906461 10.9778 1.05976 10.952 1.21365 10.9566C1.36754 10.9613 1.51902 10.9961 1.65943 11.0593C1.79984 11.1225 1.92644 11.2126 2.03199 11.3247C2.13755 11.4368 2.21999 11.5686 2.27462 11.7125C2.32924 11.8565 2.35498 12.0098 2.35037 12.1637C2.27118 14.5588 3.04146 16.9047 4.525 18.7867C6.00853 20.6686 8.10975 21.9654 10.4571 22.4477C12.8045 22.93 15.2468 22.5667 17.3521 21.4221C19.4575 20.2774 21.0903 18.4252 21.9618 16.1929C22.8334 13.9606 22.8875 11.4921 22.1146 9.22372C21.3417 6.95537 19.7917 5.03338 17.7385 3.7976C15.6853 2.56182 13.2613 2.09185 10.895 2.4708C8.52879 2.84975 6.37276 4.0532 4.80818 5.86836L4.48943 6.25586H8.20661L8.36599 6.26836C8.64648 6.30695 8.90351 6.44579 9.08957 6.6592C9.27563 6.87261 9.37813 7.14617 9.37813 7.4293C9.37813 7.71243 9.27563 7.98598 9.08957 8.19939C8.90351 8.41281 8.64648 8.55164 8.36599 8.59023L8.20661 8.60117H1.95662L1.79724 8.59023C1.54388 8.55544 1.30886 8.43873 1.12802 8.25789C0.947186 8.07706 0.83047 7.84203 0.79568 7.58867L0.784743 7.4293V1.1793L0.79568 1.01993C0.83047 0.766564 0.947186 0.531538 1.12802 0.350704C1.30886 0.169869 1.54388 0.0531535 1.79724 0.0183635L1.95662 0.00742609L2.11599 0.0183635C2.36935 0.0531535 2.60438 0.169869 2.78521 0.350704C2.96605 0.531538 3.08276 0.766564 3.11755 1.01993L3.12849 1.1793L3.12693 4.23086C5.27153 1.79484 8.28175 0.291412 11.5176 0.0402384V0.038676ZM12.1082 6.25586L12.2676 6.2668C12.5209 6.30159 12.7559 6.4183 12.9368 6.59914C13.1176 6.77997 13.2343 7.015 13.2691 7.26836L13.2801 7.42773V12.498L16.0144 12.4996L16.1738 12.5105C16.4555 12.5479 16.714 12.6863 16.9012 12.9C17.0885 13.1137 17.1917 13.3881 17.1917 13.6723C17.1917 13.9564 17.0885 14.2309 16.9012 14.4446C16.714 14.6583 16.4555 14.7967 16.1738 14.834L16.0144 14.8434H12.1082L11.9488 14.834C11.6952 14.7991 11.46 14.6822 11.2791 14.501C11.0983 14.3199 10.9817 14.0845 10.9472 13.8309L10.9363 13.6715V7.42773L10.9472 7.26836C10.982 7.015 11.0987 6.77997 11.2796 6.59914C11.4604 6.4183 11.6954 6.30159 11.9488 6.2668L12.1082 6.25586Z" fill="#2A3E4C"/>
</svg>
