<svg width="25" height="25" viewBox="0 0 25 25" fill="none" xmlns="http://www.w3.org/2000/svg">
<path d="M19.7581 2.68353C22.9335 4.91567 25 8.56646 25 12.6984C25 19.4841 19.4153 24.9851 12.5252 25C5.64517 25.0149 0.0100898 19.494 9.19941e-06 12.7182C-0.00503112 8.5863 2.0615 4.92559 5.23186 2.68849C5.82158 2.27678 6.64315 2.45039 6.99597 3.07043L7.79235 4.46428C8.08972 4.98511 7.9486 5.64483 7.45968 6.00198C5.36795 7.52975 4.03227 9.95039 4.03227 12.6934C4.02723 17.2718 7.7873 21.0317 12.5 21.0317C17.1169 21.0317 20.998 17.3512 20.9677 12.6438C20.9526 10.0744 19.7228 7.59424 17.5353 5.99702C17.0464 5.63987 16.9103 4.98015 17.2077 4.46428L18.004 3.07043C18.3569 2.45535 19.1734 2.27182 19.7581 2.68353ZM14.5161 13.0952V1.19047C14.5161 0.530753 13.9768 0 13.3065 0H11.6936C11.0232 0 10.4839 0.530753 10.4839 1.19047V13.0952C10.4839 13.7549 11.0232 14.2857 11.6936 14.2857H13.3065C13.9768 14.2857 14.5161 13.7549 14.5161 13.0952Z" fill="#DC4618"/>
</svg>
