<svg width="35" height="42" viewBox="0 0 35 42" fill="none" xmlns="http://www.w3.org/2000/svg">
<g filter="url(#filter0_d_25_351)">
<path d="M17.3333 33.25C19.1667 33.25 20.6667 31.75 20.6667 29.9167H14C14 31.75 15.5 33.25 17.3333 33.25ZM27.3333 23.25V14.9167C27.3333 9.8 24.6167 5.51667 19.8333 4.38333V3.25C19.8333 1.86667 18.7167 0.75 17.3333 0.75C15.95 0.75 14.8333 1.86667 14.8333 3.25V4.38333C10.0667 5.51667 7.33333 9.78333 7.33333 14.9167V23.25L4 26.5833V28.25H30.6667V26.5833L27.3333 23.25ZM24 24.9167H10.6667V14.9167C10.6667 10.7833 13.1833 7.41667 17.3333 7.41667C21.4833 7.41667 24 10.7833 24 14.9167V24.9167Z" fill="#28203D"/>
</g>
<defs>
<filter id="filter0_d_25_351" x="0" y="0.75" width="34.6666" height="40.5" filterUnits="userSpaceOnUse" color-interpolation-filters="sRGB">
<feFlood flood-opacity="0" result="BackgroundImageFix"/>
<feColorMatrix in="SourceAlpha" type="matrix" values="0 0 0 0 0 0 0 0 0 0 0 0 0 0 0 0 0 0 127 0" result="hardAlpha"/>
<feOffset dy="4"/>
<feGaussianBlur stdDeviation="2"/>
<feComposite in2="hardAlpha" operator="out"/>
<feColorMatrix type="matrix" values="0 0 0 0 0 0 0 0 0 0 0 0 0 0 0 0 0 0 0.25 0"/>
<feBlend mode="normal" in2="BackgroundImageFix" result="effect1_dropShadow_25_351"/>
<feBlend mode="normal" in="SourceGraphic" in2="effect1_dropShadow_25_351" result="shape"/>
</filter>
</defs>
</svg>
