<svg width="25" height="25" viewBox="0 0 25 25" fill="none" xmlns="http://www.w3.org/2000/svg">
<path d="M17.1875 16.9644C16.9389 16.9644 16.7004 17.1055 16.5246 17.3566C16.3488 17.6078 16.25 17.9484 16.25 18.3036C16.25 18.6588 16.3488 18.9995 16.5246 19.2507C16.7004 19.5018 16.9389 19.6429 17.1875 19.6429H20.3125C20.5611 19.6429 20.7996 19.5018 20.9754 19.2507C21.1512 18.9995 21.25 18.6588 21.25 18.3036C21.25 17.9484 21.1512 17.6078 20.9754 17.3566C20.7996 17.1055 20.5611 16.9644 20.3125 16.9644H17.1875Z" fill="#2A3E4C"/>
<path d="M3.4375 0C2.52582 0 1.65148 0.517377 1.00682 1.43831C0.362164 2.35925 0 3.60831 0 4.91071V20.0893C0 21.3917 0.362164 22.6407 1.00682 23.5617C1.65148 24.4826 2.52582 25 3.4375 25H21.5625C22.4742 25 23.3485 24.4826 23.9932 23.5617C24.6378 22.6407 25 21.3917 25 20.0893V4.91071C25 3.60831 24.6378 2.35925 23.9932 1.43831C23.3485 0.517377 22.4742 0 21.5625 0H3.4375ZM1.875 20.0893V10.7143H23.125V20.0893C23.125 21.3214 22.425 22.3214 21.5625 22.3214H3.4375C2.575 22.3214 1.875 21.3214 1.875 20.0893ZM1.875 8.03571V4.91071C1.875 3.67857 2.575 2.67857 3.4375 2.67857H21.5625C22.425 2.67857 23.125 3.67857 23.125 4.91071V8.03571H1.875Z" fill="#2A3E4C"/>
</svg>
