<svg width="32" height="32" viewBox="0 0 32 32" fill="none" xmlns="http://www.w3.org/2000/svg">
<path d="M16 22C14.8133 22 13.6533 21.6481 12.6666 20.9888C11.6799 20.3295 10.9109 19.3925 10.4567 18.2961C10.0026 17.1997 9.88378 15.9933 10.1153 14.8295C10.3468 13.6656 10.9182 12.5965 11.7574 11.7574C12.5965 10.9182 13.6656 10.3468 14.8295 10.1153C15.9933 9.88378 17.1997 10.0026 18.2961 10.4567C19.3925 10.9109 20.3295 11.6799 20.9888 12.6666C21.6481 13.6533 22 14.8133 22 16C22.0086 16.7903 21.8592 17.5744 21.5607 18.3062C21.2622 19.038 20.8206 19.7029 20.2617 20.2617C19.7029 20.8206 19.038 21.2622 18.3062 21.5607C17.5744 21.8592 16.7903 22.0086 16 22V22ZM16 12C15.4714 11.988 14.9459 12.0832 14.4552 12.28C13.9644 12.4767 13.5186 12.7709 13.1448 13.1448C12.7709 13.5186 12.4767 13.9644 12.28 14.4552C12.0832 14.9459 11.988 15.4714 12 16C11.988 16.5286 12.0832 17.0541 12.28 17.5449C12.4767 18.0356 12.7709 18.4814 13.1448 18.8552C13.5186 19.2291 13.9644 19.5233 14.4552 19.72C14.9459 19.9168 15.4714 20.012 16 20C16.5286 20.012 17.0541 19.9168 17.5449 19.72C18.0356 19.5233 18.4814 19.2291 18.8552 18.8552C19.2291 18.4814 19.5233 18.0356 19.72 17.5449C19.9168 17.0541 20.012 16.5286 20 16C20.012 15.4714 19.9168 14.9459 19.72 14.4552C19.5233 13.9644 19.2291 13.5186 18.8552 13.1448C18.4814 12.7709 18.0356 12.4767 17.5449 12.28C17.0541 12.0832 16.5286 11.988 16 12V12Z" fill="#2A3E4C"/>
<path d="M29.305 11.044L26.945 6.956C26.714 6.55518 26.351 6.24695 25.9181 6.08391C25.4851 5.92087 25.009 5.91313 24.571 6.062L22.137 6.885C21.7176 6.60259 21.2792 6.34933 20.825 6.127L20.322 3.608C20.2314 3.15444 19.9863 2.74633 19.6286 2.45314C19.2708 2.15995 18.8225 1.99982 18.36 2H13.64C13.1775 1.99982 12.7292 2.15995 12.3715 2.45314C12.0137 2.74633 11.7687 3.15444 11.678 3.608L11.175 6.127C10.7157 6.34689 10.2723 6.5985 9.84801 6.88L7.42801 6.062C6.99025 5.91365 6.5146 5.92166 6.08209 6.08468C5.64957 6.24769 5.28696 6.55562 5.05601 6.956L2.69601 11.044C2.46482 11.4443 2.37943 11.9123 2.45436 12.3685C2.52929 12.8246 2.75992 13.2407 3.10701 13.546L5.03801 15.243C5.02101 15.495 5.00001 15.745 5.00001 16C5.00001 16.258 5.01001 16.513 5.02801 16.766L3.10801 18.454C2.76059 18.759 2.52959 19.175 2.45429 19.6312C2.37899 20.0873 2.46406 20.5555 2.69501 20.956L5.05501 25.044C5.28588 25.445 5.64876 25.7534 6.08173 25.9167C6.51469 26.0799 6.99088 26.0878 7.42901 25.939L9.86301 25.115C10.2823 25.3979 10.7207 25.6515 11.175 25.874L11.678 28.392C11.7687 28.8456 12.0137 29.2537 12.3715 29.5469C12.7292 29.84 13.1775 30.0002 13.64 30H18V28H13.64L12.93 24.45C11.9478 24.0851 11.0361 23.5533 10.235 22.878L6.78801 24.044L4.42801 19.956L7.15301 17.561C6.96658 16.5269 6.96421 15.468 7.14601 14.433L4.42801 12.044L6.78801 7.956L10.215 9.116C11.0218 8.43973 11.9406 7.90975 12.93 7.55L13.64 4H18.36L19.07 7.55C20.0522 7.91491 20.9639 8.44673 21.765 9.122L25.212 7.956L27.572 12.044L24.774 14.496L26.092 16L28.892 13.546C29.2394 13.241 29.4704 12.825 29.5457 12.3688C29.621 11.9127 29.536 11.4445 29.305 11.044Z" fill="#2A3E4C"/>
<path d="M23 26.1801L20.41 23.5901L19 25.0001L23 29.0001L30 22.0001L28.59 20.5901L23 26.1801Z" fill="#2A3E4C"/>
</svg>
